<svg xmlns="http://www.w3.org/2000/svg" xmlns:xlink="http://www.w3.org/1999/xlink" xmlns:lucid="lucid" width="1863" height="1063"><g transform="translate(-58.5 261.5)" lucid:page-tab-id="WwAlG0empqgi"><path d="M0-500h2000v1500H0z" fill="#fff"/><path d="M895.94 66a6 6 0 0 1 6-6H1914a6 6 0 0 1 6 6v728a6 6 0 0 1-6 6H901.94a6 6 0 0 1-6-6z" stroke="#000" stroke-width="3" fill="#c3f7c8"/><path d="M60-254a6 6 0 0 1 6-6h748a6 6 0 0 1 6 6V-7.57a6 6 0 0 1-6 6H66a6 6 0 0 1-6-6z" stroke="#000" stroke-width="3" fill="#fff7a1"/><path d="M120 86a6 6 0 0 1 6-6h688a6 6 0 0 1 6 6v628a6 6 0 0 1-6 6H126a6 6 0 0 1-6-6z" stroke="#000" stroke-width="3" fill="#cfe4ff"/><g fill="none"><path d="M160 300.03v-160h80v160z"/><path d="M200 300.03v-36l-12-8 24-12-24-12 24-12-24-12 24-12-24-12 24-12-12-8v-24" stroke="#000" stroke-width="3"/></g><g fill="none"><path d="M160 570.03v-160h80v160z"/><path d="M200 570.03v-36l-12-8 24-12-24-12 24-12-24-12 24-12-24-12 24-12-12-8v-24" stroke="#000" stroke-width="3"/></g><path d="M200 301.53v107" stroke="#3a414a" stroke-width="3" fill="none"/><path d="M201.47 301.57h-2.94v-1.54h2.94zM201.47 410.03h-2.94v-1.53h2.94z" stroke="#3a414a" stroke-width=".05" fill="#3a414a"/><path d="M181.5 140.03h37M181.54 140.03H180M218.46 140.03H220" stroke="#3a414a" stroke-width="3" fill="none"/><path d="M160 115.02a4.98 4.98 0 0 1 4.98-5h70.04a4.98 4.98 0 0 1 4.98 5 4.98 4.98 0 0 1-4.98 4.98h-70.04a4.98 4.98 0 0 1-4.98-4.98z" fill="none"/><use xlink:href="#a" transform="matrix(1,0,0,1,159.99999999999977,110.03352527206152) translate(19.053602430555557 21.52777777777778)"/><path d="M160 630.03h80v60h-80z" fill="none"/><path d="M200 630.03v12zm-40 12h80m-12 12h-56m12 12h32m-24 12h16m-4 12h-8" stroke="#000" stroke-width="3" fill="none"/><path d="M200 628.53v-57" stroke="#3a414a" stroke-width="3" fill="none"/><path d="M201.47 630.03h-2.94v-1.53h2.94zM201.47 571.57h-2.94v-1.54h2.94z" stroke="#3a414a" stroke-width=".05" fill="#3a414a"/><path d="M360 410V210h40v200z" fill="none"/><path d="M380 410l160-100-160-100z" stroke="#000" stroke-width="3" fill="#fff"/><path d="M536 310h24M360 370h24M360 250h24M460 356v54M460 264v-54M390 370h14m-7 7v-14m-7-113h14" stroke="#000" stroke-width="3" fill="none"/><path d="M358.5 250H326a6 6 0 0 1-6-6V116a6 6 0 0 1 6-6h312.5" stroke="#3a414a" stroke-width="3" fill="none"/><path d="M360 251.47h-1.54v-2.94H360z" stroke="#3a414a" stroke-width=".05" fill="#3a414a"/><path d="M638.46 110H640M561.5 310H634a6 6 0 0 0 6-6V111.5" stroke="#3a414a" stroke-width="3" fill="none"/><path d="M561.54 311.48H560v-2.96h1.54z" stroke="#3a414a" stroke-width=".05" fill="#3a414a"/><path d="M640 111.54V110M201.5 370h157M201.54 370H200" stroke="#3a414a" stroke-width="3" fill="none"/><path d="M360 371.48h-1.54v-2.96H360z" stroke="#3a414a" stroke-width=".05" fill="#3a414a"/><path d="M520 210h80v60h-80z" fill="none"/><path d="M560 210v12zm-40 12h80m-12 12h-56m12 12h32m-24 12h16m-4 12h-8" stroke="#000" stroke-width="3" fill="none"/><path d="M460 208.5V176a6 6 0 0 1 6-6h88a6 6 0 0 1 6 6v32.5" stroke="#3a414a" stroke-width="3" fill="none"/><path d="M461.48 210h-2.96v-1.54h2.96zM561.48 210h-2.96v-1.54h2.96z" stroke="#3a414a" stroke-width=".05" fill="#3a414a"/><path d="M420 416.03a6 6 0 0 1 6-6h68a6 6 0 0 1 6 6v19a6 6 0 0 1-6 6h-68a6 6 0 0 1-6-6z" fill="none"/><use xlink:href="#b" transform="matrix(1,0,0,1,420,410.0335252720615) translate(18.553602430555557 23.58376736111111)"/><path d="M441.5 410l37 .03M441.54 410H440M478.46 410.03H480" stroke="#3a414a" stroke-width="3" fill="none"/><path d="M345.45 666a6 6 0 0 1 6-6h217.1a6 6 0 0 1 6 6v35.65a6 6 0 0 1-6 6h-217.1a6 6 0 0 1-6-6z" fill="none"/><use xlink:href="#c" transform="matrix(1,0,0,1,350.45289930555555,665) translate(0 30.317274305555557)"/><use xlink:href="#d" transform="matrix(1,0,0,1,350.45289930555555,665) translate(63.60460069444445 30.317274305555557)"/><path d="M706 296.07a1.07 1.07 0 0 1 1.08-1.07h77.84a1.07 1.07 0 0 1 1.08 1.07 1.07 1.07 0 0 1-1.08 1.08h-77.84a1.07 1.07 0 0 1-1.08-1.07z" fill="none"/><use xlink:href="#e" transform="matrix(1,0,0,1,706,295) translate(21.538411458333336 21.52777777777778)"/><path d="M641.5 309h37.6a.1.1 0 0 0 .1-.1.1.1 0 0 1 .1-.1h37.6M641.54 309H640M716.86 308.8h1.54" stroke="#3a414a" stroke-width="3" fill="none"/><path d="M719.5 290.5v38" stroke="#000" stroke-width="3" stroke-linecap="round" fill="none"/><path d="M1455.94 270.07v200h40v-200z" fill="none"/><path d="M1475.94 270.07l160 100-160 100z" stroke="#000" stroke-width="3" fill="#fff"/><path d="M1631.94 370.07h24M1455.94 310.07h24M1455.94 430.07h24M1555.94 324.07v-54M1555.94 416.07v54M1485.94 310.07h14m-7-7v14m-7 113h14" stroke="#000" stroke-width="3" fill="none"/><path d="M995.94 210.03h160v80h-160z" fill="none"/><path d="M995.94 250.03h36l8-12 12 24 12-24 12 24 12-24 12 24 12-24 12 24 8-12h24" stroke="#000" stroke-width="2" fill="none"/><use xlink:href="#f" transform="matrix(1,0,0,1,995.9440277777778,278.0335252720615) translate(33.40711805555556 23.08376736111111)"/><use xlink:href="#g" transform="matrix(1,0,0,1,995.9440277777778,278.0335252720615) translate(53.958333333333336 23.08376736111111)"/><use xlink:href="#h" transform="matrix(1,0,0,1,995.9440277777778,278.0335252720615) translate(97.28515625 23.08376736111111)"/><path d="M995.94 290.03h160v80h-160z" fill="none"/><path d="M995.94 330.03h36l8-12 12 24 12-24 12 24 12-24 12 24 12-24 12 24 8-12h24" stroke="#000" stroke-width="2" fill="none"/><use xlink:href="#f" transform="matrix(1,0,0,1,995.9440277777778,358.0335252720615) translate(33.40711805555556 23.08376736111111)"/><use xlink:href="#g" transform="matrix(1,0,0,1,995.9440277777778,358.0335252720615) translate(53.958333333333336 23.08376736111111)"/><use xlink:href="#h" transform="matrix(1,0,0,1,995.9440277777778,358.0335252720615) translate(97.28515625 23.08376736111111)"/><path d="M1475.94 110.03h160v80h-160z" fill="none"/><path d="M1475.94 150.03h36l8-12 12 24 12-24 12 24 12-24 12 24 12-24 12 24 8-12h24" stroke="#000" stroke-width="2" fill="none"/><use xlink:href="#f" transform="matrix(1,0,0,1,1475.9440277777778,178.03352527206152) translate(33.40711805555556 23.08376736111111)"/><use xlink:href="#g" transform="matrix(1,0,0,1,1475.9440277777778,178.03352527206152) translate(53.958333333333336 23.08376736111111)"/><use xlink:href="#h" transform="matrix(1,0,0,1,1475.9440277777778,178.03352527206152) translate(97.28515625 23.08376736111111)"/><path d="M1454.44 310.07h-32.5a6 6 0 0 1-6-6V156.03a6 6 0 0 1 6-6h52.5" stroke="#3a414a" stroke-width="3" fill="none"/><path d="M1455.94 311.54h-1.53v-2.95h1.54zM1478.94 149.03h-3v2h3v.48h-4.53v-2.94h4.54z" stroke="#3a414a" stroke-width=".05" fill="#3a414a"/><path d="M1657.44 370.07h32.5a6 6 0 0 0 6-6V156.03a6 6 0 0 0-6-6h-52.5" stroke="#3a414a" stroke-width="3" fill="none"/><path d="M1657.48 371.54h-1.54v-2.95h1.54zM1637.48 151.5h-4.54v-.47h3v-2h-3v-.47h4.54z" stroke="#3a414a" stroke-width=".05" fill="#3a414a"/><path d="M217 477.58a6 6 0 0 1 6-6h56.63a6 6 0 0 1 6 6v24.9a6 6 0 0 1-6 6H223a6 6 0 0 1-6-6z" fill="none"/><use xlink:href="#i" transform="matrix(1,0,0,1,222,476.58451485539484) translate(0 21.58376736111111)"/><use xlink:href="#h" transform="matrix(1,0,0,1,222,476.58451485539484) translate(29.307725694444443 21.58376736111111)"/><path d="M214 207.6a6 6 0 0 1 6-6h56.63a6 6 0 0 1 6 6v24.88a6 6 0 0 1-6 6H220a6 6 0 0 1-6-6z" fill="none"/><use xlink:href="#i" transform="matrix(1,0,0,1,219,206.58451485539484) translate(0 21.58376736111111)"/><use xlink:href="#h" transform="matrix(1,0,0,1,219,206.58451485539484) translate(29.307725694444443 21.58376736111111)"/><path d="M1157.44 330.03h32.5a6 6 0 0 0 6-6v-68a6 6 0 0 0-6-6h-32.5" stroke="#3a414a" stroke-width="3" fill="none"/><path d="M1157.48 331.5h-4.54v-.47h3v-2h-3v-.47h4.54zM1157.48 251.5h-4.54v-.47h3v-2h-3v-.47h4.54z" stroke="#3a414a" stroke-width=".05" fill="#3a414a"/><path d="M1197.44 290.03h122.5a6 6 0 0 1 6 6v8.04a6 6 0 0 0 6 6h122.5M1197.48 290.03h-1.54" stroke="#3a414a" stroke-width="3" fill="none"/><path d="M1455.94 311.54h-1.53v-2.95h1.54z" stroke="#3a414a" stroke-width=".05" fill="#3a414a"/><path d="M995.94 360.03h160v80h-160z" fill="none"/><path d="M995.94 400.03h36l8-12 12 24 12-24 12 24 12-24 12 24 12-24 12 24 8-12h24" stroke="#000" stroke-width="2" fill="none"/><use xlink:href="#f" transform="matrix(1,0,0,1,995.9440277777778,428.0335252720615) translate(33.40711805555556 23.08376736111111)"/><use xlink:href="#g" transform="matrix(1,0,0,1,995.9440277777778,428.0335252720615) translate(53.958333333333336 23.08376736111111)"/><use xlink:href="#h" transform="matrix(1,0,0,1,995.9440277777778,428.0335252720615) translate(97.28515625 23.08376736111111)"/><path d="M995.94 440.03h160v80h-160z" fill="none"/><path d="M995.94 480.03h36l8-12 12 24 12-24 12 24 12-24 12 24 12-24 12 24 8-12h24" stroke="#000" stroke-width="2" fill="none"/><use xlink:href="#f" transform="matrix(1,0,0,1,995.9440277777778,508.0335252720615) translate(33.40711805555556 23.08376736111111)"/><use xlink:href="#g" transform="matrix(1,0,0,1,995.9440277777778,508.0335252720615) translate(53.958333333333336 23.08376736111111)"/><use xlink:href="#h" transform="matrix(1,0,0,1,995.9440277777778,508.0335252720615) translate(97.28515625 23.08376736111111)"/><path d="M1157.44 480.03h32.5a6 6 0 0 0 6-6v-68a6 6 0 0 0-6-6h-32.5" stroke="#3a414a" stroke-width="3" fill="none"/><path d="M1157.48 481.5h-4.54v-.47h3v-2h-3v-.47h4.54zM1157.48 401.5h-4.54v-.47h3v-2h-3v-.47h4.54z" stroke="#3a414a" stroke-width=".05" fill="#3a414a"/><path d="M1197.44 440.03h123.52a4.98 4.98 0 0 0 4.98-4.98 4.98 4.98 0 0 1 5-4.98h123.5M1197.48 440.03h-1.54M1454.4 430.07h1.54" stroke="#3a414a" stroke-width="3" fill="none"/><path d="M994.44 235.53v27.04M994.98 315.83v27.04M994.98 387.4v27.04M996.44 466.02v27.03" stroke="#000" stroke-width="3" stroke-linecap="round" fill="none"/><path d="M923 235.03a6 6 0 0 1 6-6h60.94a6 6 0 0 1 6 6v24.9a6 6 0 0 1-6 6H929a6 6 0 0 1-6-6z" fill="none"/><use xlink:href="#j" transform="matrix(1,0,0,1,927.9999999999999,234.03352527206152) translate(0 21.58376736111111)"/><path d="M920 316.9a6 6 0 0 1 6-6h65.46a6 6 0 0 1 6 6v24.9a6 6 0 0 1-6 6H926a6 6 0 0 1-6-6z" fill="none"/><use xlink:href="#k" transform="matrix(1,0,0,1,925,315.9023924095713) translate(0 21.58376736111111)"/><path d="M922 387.58a6 6 0 0 1 6-6h59.1a6 6 0 0 1 6 6v24.9a6 6 0 0 1-6 6H928a6 6 0 0 1-6-6z" fill="none"/><use xlink:href="#l" transform="matrix(1,0,0,1,927.0000000000001,386.58451485539484) translate(0 21.58376736111111)"/><path d="M923 463.65a6 6 0 0 1 6-6h64.36a6 6 0 0 1 6 6v24.9a6 6 0 0 1-6 6H929a6 6 0 0 1-6-6z" fill="none"/><use xlink:href="#m" transform="matrix(1,0,0,1,927.9999999999999,462.652267074759) translate(0 21.58376736111111)"/><path d="M1515.94 470.07h80v60h-80z" fill="none"/><path d="M1555.94 470.07v12zm-40 12h80m-12 12h-56m12 12h32m-24 12h16m-4 12h-8" stroke="#000" stroke-width="2" fill="none"/><path d="M1532.78 268.57h46.33" stroke="#000" stroke-width="3" stroke-linecap="round" fill="none"/><path d="M1529.5 239.17a6 6 0 0 1 6-6h40.9a6 6 0 0 1 6 6v24.9a6 6 0 0 1-6 6h-40.9a6 6 0 0 1-6-6z" fill="none"/><use xlink:href="#b" transform="matrix(1,0,0,1,1534.4926302083334,238.1690297107897) translate(0 21.58376736111111)"/><path d="M1420 431.57v37M1420 431.6v-1.53" stroke="#3a414a" stroke-width="3" fill="none"/><path d="M1421.47 473.07h-.47v-3h-2v3h-.47v-4.54h2.94z" stroke="#3a414a" stroke-width=".05" fill="#3a414a"/><g fill="none"><path d="M1380 630.07v-160h80v160z"/><path d="M1420 630.07v-36l-12-8 24-12-24-12 24-12-24-12 24-12-24-12 24-12-12-8v-24" stroke="#000" stroke-width="2"/></g><path d="M1420 651.53v-19.96" stroke="#3a414a" stroke-width="3" fill="none"/><path d="M1421.47 653.03h-2.94v-1.53h2.94zM1421.47 631.6h-2.94v-4.53h.47v3h2v-3h.47z" stroke="#3a414a" stroke-width=".05" fill="#3a414a"/><path d="M1396.83 651.53h46.34" stroke="#000" stroke-width="3" stroke-linecap="round" fill="none"/><path d="M1393.55 659.03a6 6 0 0 1 6-6h40.9a6 6 0 0 1 6 6v24.9a6 6 0 0 1-6 6h-40.9a6 6 0 0 1-6-6z" fill="none"/><g><use xlink:href="#n" transform="matrix(1,0,0,1,1398.5486024305555,658.0335252720615) translate(0 21.58376736111111)"/></g><path d="M1657.44 370.07h181.06" stroke="#3a414a" stroke-width="3" fill="none"/><path d="M1657.48 371.54h-1.54v-2.95h1.54z" stroke="#3a414a" stroke-width=".05" fill="#3a414a"/><path d="M1838.46 370.07h1.54" stroke="#3a414a" stroke-width="3" fill="none"/><g><path d="M1841.5 396.1v-52.06" stroke="#000" stroke-width="3" stroke-linecap="round" fill="none"/></g><path d="M1841.55 356.55a6 6 0 0 1 6-6h45.95a6 6 0 0 1 6 6v24.9a6 6 0 0 1-6 6h-45.95a6 6 0 0 1-6-6z" fill="none"/><g><use xlink:href="#o" transform="matrix(1,0,0,1,1846.5486024305555,355.5509895833333) translate(0 21.58376736111111)"/></g><path d="M80-234a6 6 0 0 1 6-6h233.45a6 6 0 0 1 6 6v48a6 6 0 0 1-6 6H86a6 6 0 0 1-6-6z" fill="none"/><g><use xlink:href="#p" transform="matrix(1,0,0,1,84.99999999999999,-235) translate(0 39.55078125)"/></g><path d="M80-154a6 6 0 0 1 6-6h708a6 6 0 0 1 6 6V-7.57a6 6 0 0 1-6 6H86a6 6 0 0 1-6-6z" fill="none"/><g><use xlink:href="#q" transform="matrix(1,0,0,1,85,-155) translate(3.6111111111111107 26.122395833333336)"/><use xlink:href="#r" transform="matrix(1,0,0,1,85,-155) translate(22.22222222222222 26.122395833333336)"/><use xlink:href="#s" transform="matrix(1,0,0,1,85,-155) translate(92.37847222222223 26.122395833333336)"/><use xlink:href="#t" transform="matrix(1,0,0,1,85,-155) translate(145.26909722222223 26.122395833333336)"/><use xlink:href="#u" transform="matrix(1,0,0,1,85,-155) translate(176.46701388888889 26.122395833333336)"/><use xlink:href="#v" transform="matrix(1,0,0,1,85,-155) translate(244.00607638888889 26.122395833333336)"/><use xlink:href="#w" transform="matrix(1,0,0,1,85,-155) translate(298.79774305555554 26.122395833333336)"/><use xlink:href="#x" transform="matrix(1,0,0,1,85,-155) translate(353.92795138888886 26.122395833333336)"/><use xlink:href="#y" transform="matrix(1,0,0,1,85,-155) translate(413.32899305555554 26.122395833333336)"/><use xlink:href="#z" transform="matrix(1,0,0,1,85,-155) translate(449.87847222222223 26.122395833333336)"/><use xlink:href="#w" transform="matrix(1,0,0,1,85,-155) translate(581.5711805555555 26.122395833333336)"/><use xlink:href="#A" transform="matrix(1,0,0,1,85,-155) translate(636.7013888888889 26.122395833333336)"/><use xlink:href="#B" transform="matrix(1,0,0,1,85,-155) translate(22.22222222222222 64.84114583333334)"/><use xlink:href="#C" transform="matrix(1,0,0,1,85,-155) translate(70.92013888888889 64.84114583333334)"/><use xlink:href="#D" transform="matrix(1,0,0,1,85,-155) translate(110.29513888888889 64.84114583333334)"/><use xlink:href="#E" transform="matrix(1,0,0,1,85,-155) translate(157.48263888888889 64.84114583333334)"/><use xlink:href="#F" transform="matrix(1,0,0,1,85,-155) translate(259.8263888888889 64.84114583333334)"/><use xlink:href="#G" transform="matrix(1,0,0,1,85,-155) translate(314.3836805555556 64.84114583333334)"/><use xlink:href="#H" transform="matrix(1,0,0,1,85,-155) translate(470.3602430555556 64.84114583333334)"/><use xlink:href="#B" transform="matrix(1,0,0,1,85,-155) translate(587.5607638888889 64.84114583333334)"/><use xlink:href="#I" transform="matrix(1,0,0,1,85,-155) translate(636.2586805555555 64.84114583333334)"/><use xlink:href="#q" transform="matrix(1,0,0,1,85,-155) translate(3.6111111111111107 103.55989583333334)"/><use xlink:href="#J" transform="matrix(1,0,0,1,85,-155) translate(22.22222222222222 103.55989583333334)"/><use xlink:href="#K" transform="matrix(1,0,0,1,85,-155) translate(127.05295138888889 103.55989583333334)"/><use xlink:href="#L" transform="matrix(1,0,0,1,85,-155) translate(197.73003472222223 103.55989583333334)"/><use xlink:href="#M" transform="matrix(1,0,0,1,85,-155) translate(330.71180555555554 103.55989583333334)"/><use xlink:href="#N" transform="matrix(1,0,0,1,85,-155) translate(0 142.27864583333334)"/></g><path d="M1298.97 726a6 6 0 0 1 6-6h269.64a6 6 0 0 1 6 6v35.65a6 6 0 0 1-6 6h-269.63a6 6 0 0 1-6-6z" fill="none"/><g><use xlink:href="#O" transform="matrix(1,0,0,1,1303.9709201388891,725) translate(0 30.317274305555557)"/><use xlink:href="#P" transform="matrix(1,0,0,1,1303.9709201388891,725) translate(170.77690972222223 30.317274305555557)"/></g><defs><path d="M154 0v-137l495-537c165-179 249-281 249-418 0-156-121-253-280-253-170 0-278 110-278 278H158c0-264 200-443 465-443 266 0 455 183 455 416 0 161-73 288-336 568L416-179v12h687V0H154" id="Q"/><path d="M120-303v-155l652-1032h231v1020h202v167h-202V0H821v-303H120zm702-167v-782h-12L323-482v12h499" id="R"/><path d="M600 0L52-1490h200c166 485 304 806 458 1336 156-533 285-846 449-1336h202L819 0H600" id="S"/><g id="a"><use transform="matrix(0.010850694444444444,0,0,0.010850694444444444,0,0)" xlink:href="#Q"/><use transform="matrix(0.010850694444444444,0,0,0.010850694444444444,13.20529513888889,0)" xlink:href="#R"/><use transform="matrix(0.010850694444444444,0,0,0.010850694444444444,27.56076388888889,0)" xlink:href="#S"/></g><g id="b"><use transform="matrix(0.010850694444444444,0,0,0.010850694444444444,0,0)" xlink:href="#Q"/><use transform="matrix(0.010850694444444444,0,0,0.010850694444444444,13.20529513888889,0)" xlink:href="#R"/><use transform="matrix(0.010850694444444444,0,0,0.010850694444444444,27.56076388888889,0)" xlink:href="#S"/></g><path d="M749-1490V0H444v-1221h-10L93-980v-279l329-231h327" id="T"/><path d="M124 0v-220l528-495c135-132 210-216 210-336 0-133-98-215-231-215-139 0-229 88-229 233H110c0-290 214-477 523-477 315 0 525 182 525 440 0 167-80 305-385 586L548-262v11h630V0H124" id="U"/><path d="M571 0L49-1490h339c138 427 271 775 384 1244 111-471 237-815 371-1244h337L970 0H571" id="V"/><g id="c"><use transform="matrix(0.015190972222222224,0,0,0.015190972222222224,0,0)" xlink:href="#T"/><use transform="matrix(0.015190972222222224,0,0,0.015190972222222224,13.413628472222223,0)" xlink:href="#U"/><use transform="matrix(0.015190972222222224,0,0,0.015190972222222224,33.00998263888889,0)" xlink:href="#V"/></g><path d="M135 0v-1490h581c339 0 533 192 533 485 0 204-94 351-264 424L1302 0H964L680-532H440V0H135zm305-779h220c186 0 274-77 274-226 0-150-88-233-275-233H440v459" id="W"/><path d="M633 22C291 22 81-200 81-553c0-345 210-579 537-579 292 0 525 185 525 567v84H378c7 183 109 277 260 277 105 0 184-46 216-132l272 51C1071-99 893 22 633 22zM380-669h474c-15-146-94-237-233-237-143 0-229 99-241 237" id="X"/><path d="M750-1118v229H516V0H217v-889H20v-229h197v-86c0-238 156-356 363-356 94 0 178 20 215 31l-54 226c-25-7-61-15-100-15-123-3-131 84-125 200h234" id="Y"/><path d="M128 0v-1118h290v195h12c54-169 184-238 367-200v268c-27-8-86-15-130-15-138 0-239 95-239 234V0H128" id="Z"/><path d="M428-647V0H128v-1118h283l4 231c63-156 176-245 348-245 232 0 384 159 384 421V0H847v-659c0-139-76-222-202-222-128 0-217 86-217 234" id="aa"/><path d="M628 22C291 22 81-210 81-554c0-346 210-578 547-578 265 0 455 142 497 372l-279 52c-25-116-99-188-215-188-160 0-244 139-244 341 0 200 84 341 244 341 116 0 193-74 217-195l279 51C1085-123 896 22 628 22" id="ab"/><g id="d"><use transform="matrix(0.015190972222222224,0,0,0.015190972222222224,0,0)" xlink:href="#W"/><use transform="matrix(0.015190972222222224,0,0,0.015190972222222224,20.052083333333332,0)" xlink:href="#X"/><use transform="matrix(0.015190972222222224,0,0,0.015190972222222224,38.58506944444444,0)" xlink:href="#Y"/><use transform="matrix(0.015190972222222224,0,0,0.015190972222222224,50.29730902777778,0)" xlink:href="#X"/><use transform="matrix(0.015190972222222224,0,0,0.015190972222222224,68.83029513888889,0)" xlink:href="#Z"/><use transform="matrix(0.015190972222222224,0,0,0.015190972222222224,80.7400173611111,0)" xlink:href="#X"/><use transform="matrix(0.015190972222222224,0,0,0.015190972222222224,99.27300347222221,0)" xlink:href="#aa"/><use transform="matrix(0.015190972222222224,0,0,0.015190972222222224,118.64149305555554,0)" xlink:href="#ab"/><use transform="matrix(0.015190972222222224,0,0,0.015190972222222224,136.94661458333331,0)" xlink:href="#X"/></g><path d="M653-1490V0H466v-1314h-10L96-1047v-204l324-239h233" id="ac"/><g id="e"><use transform="matrix(0.010850694444444444,0,0,0.010850694444444444,0,0)" xlink:href="#ac"/><use transform="matrix(0.010850694444444444,0,0,0.010850694444444444,9.038628472222221,0)" xlink:href="#Q"/><use transform="matrix(0.010850694444444444,0,0,0.010850694444444444,22.591145833333332,0)" xlink:href="#S"/></g><path d="M180 0v-1490h510c348 0 508 194 508 460 0 198-88 351-276 417L1256 0h-220L726-579c-117 2-238 0-356 1V0H180zm190-747h312c235 0 327-108 327-283 0-177-92-293-329-293H370v576" id="ad"/><use transform="matrix(0.010850694444444444,0,0,0.010850694444444444,0,0)" xlink:href="#ad" id="f"/><path d="M646 20c-332 0-524-278-524-764 0-483 194-766 524-766s524 283 524 766c0 485-191 764-524 764zm0-166c218 0 341-220 341-598 0-380-123-601-341-601s-341 222-341 601c0 378 123 598 341 598" id="ae"/><g id="g"><use transform="matrix(0.010850694444444444,0,0,0.010850694444444444,0,0)" xlink:href="#ac"/><use transform="matrix(0.010850694444444444,0,0,0.010850694444444444,9.038628472222221,0)" xlink:href="#ae"/><use transform="matrix(0.010850694444444444,0,0,0.010850694444444444,23.057725694444443,0)" xlink:href="#ae"/></g><path d="M158 0v-1490h180v865h22l478-493h223L593-638 1096 0H865L456-523 338-412V0H158" id="af"/><path d="M126 0v-167h363v-74c-239-68-367-291-367-573 0-409 275-696 666-696s667 287 667 696c0 283-130 505-367 573v74h363V0H915v-300c220-59 349-241 349-512 0-325-189-521-475-521-288 0-476 196-476 521 0 270 128 452 349 512V0H126" id="ag"/><g id="h"><use transform="matrix(0.010850694444444444,0,0,0.010850694444444444,0,0)" xlink:href="#af"/><use transform="matrix(0.010850694444444444,0,0,0.010850694444444444,12.196180555555555,0)" xlink:href="#ag"/></g><g id="i"><use transform="matrix(0.010850694444444444,0,0,0.010850694444444444,0,0)" xlink:href="#ac"/><use transform="matrix(0.010850694444444444,0,0,0.010850694444444444,9.038628472222221,0)" xlink:href="#ae"/></g><path d="M471 26C259 26 90-98 90-318c0-256 228-303 435-329 202-27 287-16 287-108 0-139-79-219-234-219-161 0-248 86-283 164l-173-57c86-203 278-265 451-265 150 0 419 46 419 395V0H815v-152h-12C765-73 660 26 471 26zm31-159c199 0 310-134 310-271v-155c-30 35-226 55-295 64-131 17-246 59-246 186 0 116 97 176 231 176" id="ah"/><path d="M577 24c-279 0-473-224-473-580 0-354 195-576 474-576 218 0 287 134 324 193h14v-551h180V0H922v-173h-20C865-111 790 24 577 24zm27-161c203 0 314-172 314-421 0-247-108-413-314-413-212 0-317 181-317 413 0 235 108 421 317 421" id="ai"/><g id="j"><use transform="matrix(0.010850694444444444,0,0,0.010850694444444444,0,0)" xlink:href="#S"/><use transform="matrix(0.010850694444444444,0,0,0.010850694444444444,14.20355902777778,0)" xlink:href="#ah"/><use transform="matrix(0.010850694444444444,0,0,0.010850694444444444,26.68185763888889,0)" xlink:href="#ai"/><use transform="matrix(0.010850694444444444,0,0,0.010850694444444444,40.28862847222222,0)" xlink:href="#ai"/><use transform="matrix(0.010850694444444444,0,0,0.010850694444444444,53.89539930555556,0)" xlink:href="#ac"/></g><g id="k"><use transform="matrix(0.010850694444444444,0,0,0.010850694444444444,0,0)" xlink:href="#S"/><use transform="matrix(0.010850694444444444,0,0,0.010850694444444444,14.20355902777778,0)" xlink:href="#ah"/><use transform="matrix(0.010850694444444444,0,0,0.010850694444444444,26.68185763888889,0)" xlink:href="#ai"/><use transform="matrix(0.010850694444444444,0,0,0.010850694444444444,40.28862847222222,0)" xlink:href="#ai"/><use transform="matrix(0.010850694444444444,0,0,0.010850694444444444,53.89539930555556,0)" xlink:href="#Q"/></g><path d="M538 24C308 24 148-78 108-271l171-41c32 123 123 178 257 178 156 0 256-77 256-169 0-77-54-128-164-154l-186-44c-203-48-300-148-300-305 0-192 176-326 414-326 230 0 351 112 402 269l-163 42c-31-80-94-158-238-158-133 0-233 69-233 162 0 83 57 129 188 160l169 40c203 48 298 149 298 302 0 196-179 339-441 339" id="aj"/><path d="M537 14c-226 0-379-139-379-422v-710h180v695c0 172 97 275 253 275 160 0 281-109 281-300v-670h181V0H879v-209C806-46 684 14 537 14" id="ak"/><path d="M677 24c-213 0-288-135-325-197h-20V0H158v-1490h180v551h14c37-59 106-193 324-193 279 0 474 222 474 576 0 356-194 580-473 580zm-27-161c209 0 317-186 317-421 0-232-105-413-317-413-206 0-314 166-314 413 0 249 111 421 314 421" id="al"/><g id="l"><use transform="matrix(0.010850694444444444,0,0,0.010850694444444444,0,0)" xlink:href="#S"/><use transform="matrix(0.010850694444444444,0,0,0.010850694444444444,14.322916666666666,0)" xlink:href="#aj"/><use transform="matrix(0.010850694444444444,0,0,0.010850694444444444,26.05251736111111,0)" xlink:href="#ak"/><use transform="matrix(0.010850694444444444,0,0,0.010850694444444444,39.19270833333333,0)" xlink:href="#al"/><use transform="matrix(0.010850694444444444,0,0,0.010850694444444444,52.05078125,0)" xlink:href="#ac"/></g><g id="m"><use transform="matrix(0.010850694444444444,0,0,0.010850694444444444,0,0)" xlink:href="#S"/><use transform="matrix(0.010850694444444444,0,0,0.010850694444444444,14.322916666666666,0)" xlink:href="#aj"/><use transform="matrix(0.010850694444444444,0,0,0.010850694444444444,26.05251736111111,0)" xlink:href="#ak"/><use transform="matrix(0.010850694444444444,0,0,0.010850694444444444,39.19270833333333,0)" xlink:href="#al"/><use transform="matrix(0.010850694444444444,0,0,0.010850694444444444,52.79947916666666,0)" xlink:href="#Q"/></g><g id="n"><use transform="matrix(0.010850694444444444,0,0,0.010850694444444444,0,0)" xlink:href="#ac"/><use transform="matrix(0.010850694444444444,0,0,0.010850694444444444,9.038628472222221,0)" xlink:href="#Q"/><use transform="matrix(0.010850694444444444,0,0,0.010850694444444444,22.591145833333332,0)" xlink:href="#S"/></g><path d="M613 24c-304 0-509-231-509-576 0-350 205-580 509-580 305 0 511 230 511 580 0 345-206 576-511 576zm0-161c226 0 329-195 329-415 0-222-103-419-329-419-223 0-326 196-326 419 0 220 103 415 326 415" id="am"/><path d="M598-1118v154H368v674c0 100 37 144 132 144 23 0 62-6 92-12L629-6c-37 13-88 20-134 20-193 0-307-107-307-290v-688H20v-154h168v-266h180v266h230" id="an"/><g id="o"><use transform="matrix(0.010850694444444444,0,0,0.010850694444444444,0,0)" xlink:href="#S"/><use transform="matrix(0.010850694444444444,0,0,0.010850694444444444,14.20355902777778,0)" xlink:href="#am"/><use transform="matrix(0.010850694444444444,0,0,0.010850694444444444,27.52821180555556,0)" xlink:href="#ak"/><use transform="matrix(0.010850694444444444,0,0,0.010850694444444444,40.66840277777778,0)" xlink:href="#an"/></g><path d="M135 0v-1490h340l471 754c59 97 122 210 187 365-32-387-14-721-19-1119h312V0h-341C855-382 627-689 427-1113c32 420 16 695 20 1113H135" id="ao"/><path d="M628 22C291 22 81-210 81-554c0-346 210-578 547-578 336 0 547 232 547 578 0 344-211 576-547 576zm0-236c160 0 242-146 242-341 0-197-82-341-242-341S387-753 387-555c0 195 81 341 241 341" id="ap"/><path d="M683-1118v229H474v562c0 71 29 104 102 104 23 0 73-7 95-13l43 225C647 9 580 16 520 16 296 16 174-96 174-301v-588H20v-229h154v-266h300v266h209" id="aq"/><path d="M572 22C302 22 117-98 78-306l279-48c29 105 101 156 224 156 114 0 185-48 185-115 0-118-228-130-337-155-215-49-322-150-322-317 0-215 187-347 470-347 265 0 424 116 466 298l-266 47c-24-76-87-130-196-130-98 0-174 46-174 113 0 56 38 95 144 117l201 40c216 44 320 143 320 302 0 220-207 367-500 367" id="ar"/><path d="M342-723c-98 0-173-75-173-172s75-172 173-172 173 75 173 172-75 172-173 172zm0 742c-98 0-173-75-173-172s75-172 173-172 173 75 173 172S440 19 342 19" id="as"/><g id="p"><use transform="matrix(0.01953125,0,0,0.01953125,0,0)" xlink:href="#ao"/><use transform="matrix(0.01953125,0,0,0.01953125,30.48828125,0)" xlink:href="#ap"/><use transform="matrix(0.01953125,0,0,0.01953125,55.01953125,0)" xlink:href="#aq"/><use transform="matrix(0.01953125,0,0,0.01953125,69.27734375,0)" xlink:href="#X"/><use transform="matrix(0.01953125,0,0,0.01953125,93.10546875,0)" xlink:href="#ar"/><use transform="matrix(0.01953125,0,0,0.01953125,115.5078125,0)" xlink:href="#as"/><path d="M-2 8.16h132.87v3.7H-2z"/></g><path d="M576-274c-177 0-320-143-320-320s143-320 320-320 320 143 320 320-143 320-320 320" id="at"/><use transform="matrix(0.013020833333333334,0,0,0.013020833333333334,0,0)" xlink:href="#at" id="q"/><path d="M180 0v-1490h270l367 940c28 72 75 218 110 339 35-117 81-264 110-339l362-940h271V0h-187c2-448-5-837 7-1287-157 497-311 829-483 1287H842C666-458 514-784 354-1284c12 438 5 843 7 1284H180" id="au"/><g id="r"><use transform="matrix(0.013020833333333334,0,0,0.013020833333333334,0,0)" xlink:href="#au"/><use transform="matrix(0.013020833333333334,0,0,0.013020833333333334,24.088541666666668,0)" xlink:href="#ak"/><use transform="matrix(0.013020833333333334,0,0,0.013020833333333334,39.856770833333336,0)" xlink:href="#aj"/><use transform="matrix(0.013020833333333334,0,0,0.013020833333333334,53.93229166666667,0)" xlink:href="#an"/></g><path d="M628 24c-324 0-524-230-524-574 0-343 198-582 503-582 237 0 487 146 487 559v75H286c9 234 145 362 343 362 132 0 231-58 273-172l174 48C1024-91 857 24 628 24zM287-650h624c-17-190-120-322-304-322-192 0-309 151-320 322" id="av"/><g id="s"><use transform="matrix(0.013020833333333334,0,0,0.013020833333333334,0,0)" xlink:href="#ak"/><use transform="matrix(0.013020833333333334,0,0,0.013020833333333334,15.768229166666668,0)" xlink:href="#aj"/><use transform="matrix(0.013020833333333334,0,0,0.013020833333333334,29.84375,0)" xlink:href="#av"/></g><g id="t"><use transform="matrix(0.013020833333333334,0,0,0.013020833333333334,0,0)" xlink:href="#ah"/><use transform="matrix(0.013020833333333334,0,0,0.013020833333333334,14.973958333333334,0)" xlink:href="#an"/></g><path d="M338-1490V0H158v-1490h180" id="aw"/><g id="u"><use transform="matrix(0.013020833333333334,0,0,0.013020833333333334,0,0)" xlink:href="#aw"/><use transform="matrix(0.013020833333333334,0,0,0.013020833333333334,6.458333333333334,0)" xlink:href="#av"/><use transform="matrix(0.013020833333333334,0,0,0.013020833333333334,22.265625,0)" xlink:href="#ah"/><use transform="matrix(0.013020833333333334,0,0,0.013020833333333334,37.239583333333336,0)" xlink:href="#aj"/><use transform="matrix(0.013020833333333334,0,0,0.013020833333333334,51.31510416666667,0)" xlink:href="#an"/></g><path d="M338-670V0H158v-1118h173l1 207c72-158 192-221 342-221 226 0 378 139 378 422V0H872v-695c0-172-96-275-252-275-161 0-282 109-282 300" id="ax"/><g id="v"><use transform="matrix(0.013020833333333334,0,0,0.013020833333333334,0,0)" xlink:href="#am"/><use transform="matrix(0.013020833333333334,0,0,0.013020833333333334,15.989583333333334,0)" xlink:href="#ax"/><use transform="matrix(0.013020833333333334,0,0,0.013020833333333334,31.744791666666668,0)" xlink:href="#av"/></g><g id="w"><use transform="matrix(0.013020833333333334,0,0,0.013020833333333334,0,0)" xlink:href="#ah"/><use transform="matrix(0.013020833333333334,0,0,0.013020833333333334,14.973958333333334,0)" xlink:href="#ai"/><use transform="matrix(0.013020833333333334,0,0,0.013020833333333334,31.302083333333336,0)" xlink:href="#ai"/></g><path d="M158 0v-1118h180V0H158zm91-1301c-68 0-125-53-125-119s57-119 125-119c69 0 126 53 126 119s-57 119-126 119" id="ay"/><path d="M128 359l88-567h206L266 359H128" id="az"/><g id="x"><use transform="matrix(0.013020833333333334,0,0,0.013020833333333334,0,0)" xlink:href="#aw"/><use transform="matrix(0.013020833333333334,0,0,0.013020833333333334,6.458333333333334,0)" xlink:href="#ay"/><use transform="matrix(0.013020833333333334,0,0,0.013020833333333334,12.916666666666668,0)" xlink:href="#ax"/><use transform="matrix(0.013020833333333334,0,0,0.013020833333333334,28.671875,0)" xlink:href="#av"/><use transform="matrix(0.013020833333333334,0,0,0.013020833333333334,44.21875,0)" xlink:href="#az"/></g><g id="y"><use transform="matrix(0.013020833333333334,0,0,0.013020833333333334,0,0)" xlink:href="#ah"/><use transform="matrix(0.013020833333333334,0,0,0.013020833333333334,14.973958333333334,0)" xlink:href="#aj"/></g><path d="M338-670V0H158v-1490h180v566c73-149 190-208 336-208 226 0 379 139 379 422V0H872v-695c0-172-96-275-252-275-161 0-282 109-282 300" id="aA"/><path d="M158 0v-1118h174v172h12c41-113 157-188 290-188 26 0 70 2 91 3v181c-11-2-60-10-108-10-161 0-279 109-279 260V0H158" id="aB"/><path d="M409 0L70-1118h191c89 329 165 560 243 925 75-353 154-601 240-925h192c85 325 161 564 235 922 77-354 157-598 244-922h191L1267 0h-179c-86-307-176-590-250-913C763-588 675-308 588 0H409" id="aC"/><g id="z"><use transform="matrix(0.013020833333333334,0,0,0.013020833333333334,0,0)" xlink:href="#am"/><use transform="matrix(0.013020833333333334,0,0,0.013020833333333334,15.989583333333334,0)" xlink:href="#an"/><use transform="matrix(0.013020833333333334,0,0,0.013020833333333334,24.713541666666668,0)" xlink:href="#aA"/><use transform="matrix(0.013020833333333334,0,0,0.013020833333333334,40.481770833333336,0)" xlink:href="#av"/><use transform="matrix(0.013020833333333334,0,0,0.013020833333333334,56.028645833333336,0)" xlink:href="#aB"/><use transform="matrix(0.013020833333333334,0,0,0.013020833333333334,66.2890625,0)" xlink:href="#aC"/><use transform="matrix(0.013020833333333334,0,0,0.013020833333333334,88.11197916666667,0)" xlink:href="#ay"/><use transform="matrix(0.013020833333333334,0,0,0.013020833333333334,94.5703125,0)" xlink:href="#aj"/><use transform="matrix(0.013020833333333334,0,0,0.013020833333333334,108.64583333333334,0)" xlink:href="#av"/></g><g id="A"><use transform="matrix(0.013020833333333334,0,0,0.013020833333333334,0,0)" xlink:href="#aw"/><use transform="matrix(0.013020833333333334,0,0,0.013020833333333334,6.458333333333334,0)" xlink:href="#ay"/><use transform="matrix(0.013020833333333334,0,0,0.013020833333333334,12.916666666666668,0)" xlink:href="#ax"/><use transform="matrix(0.013020833333333334,0,0,0.013020833333333334,28.671875,0)" xlink:href="#av"/></g><g id="B"><use transform="matrix(0.013020833333333334,0,0,0.013020833333333334,0,0)" xlink:href="#aC"/><use transform="matrix(0.013020833333333334,0,0,0.013020833333333334,21.822916666666668,0)" xlink:href="#ay"/><use transform="matrix(0.013020833333333334,0,0,0.013020833333333334,28.28125,0)" xlink:href="#aw"/><use transform="matrix(0.013020833333333334,0,0,0.013020833333333334,34.739583333333336,0)" xlink:href="#aw"/></g><g id="C"><use transform="matrix(0.013020833333333334,0,0,0.013020833333333334,0,0)" xlink:href="#al"/><use transform="matrix(0.013020833333333334,0,0,0.013020833333333334,16.328125,0)" xlink:href="#av"/></g><path d="M678-1118v154H420V0H240v-964H20v-154h220v-149c0-194 155-293 318-293 85 0 141 18 168 30l-50 154c-19-6-47-17-97-17-111 0-159 58-159 166v109h258" id="aD"/><g id="D"><use transform="matrix(0.013020833333333334,0,0,0.013020833333333334,0,0)" xlink:href="#aw"/><use transform="matrix(0.013020833333333334,0,0,0.013020833333333334,6.458333333333334,0)" xlink:href="#av"/><use transform="matrix(0.013020833333333334,0,0,0.013020833333333334,22.005208333333336,0)" xlink:href="#aD"/><use transform="matrix(0.013020833333333334,0,0,0.013020833333333334,30.963541666666675,0)" xlink:href="#an"/></g><path d="M611 442c-248 0-391-105-460-228l146-94c47 65 117 165 314 165 178 0 307-82 307-266v-224h-17C863-141 792-18 576-18c-268 0-472-195-472-546 0-346 197-568 476-568 216 0 288 133 326 193h17v-179h175V29c0 289-215 413-487 413zm-5-620c203 0 314-146 314-390 0-237-108-403-314-403-213 0-319 180-319 403 0 230 109 390 319 390" id="aE"/><g id="E"><use transform="matrix(0.013020833333333334,0,0,0.013020833333333334,0,0)" xlink:href="#aD"/><use transform="matrix(0.013020833333333334,0,0,0.013020833333333334,9.869791666666668,0)" xlink:href="#aw"/><use transform="matrix(0.013020833333333334,0,0,0.013020833333333334,16.328125,0)" xlink:href="#am"/><use transform="matrix(0.013020833333333334,0,0,0.013020833333333334,32.578125,0)" xlink:href="#ah"/><use transform="matrix(0.013020833333333334,0,0,0.013020833333333334,47.552083333333336,0)" xlink:href="#an"/><use transform="matrix(0.013020833333333334,0,0,0.013020833333333334,56.27604166666667,0)" xlink:href="#ay"/><use transform="matrix(0.013020833333333334,0,0,0.013020833333333334,62.734375,0)" xlink:href="#ax"/><use transform="matrix(0.013020833333333334,0,0,0.013020833333333334,78.48958333333334,0)" xlink:href="#aE"/></g><g id="F"><use transform="matrix(0.013020833333333334,0,0,0.013020833333333334,0,0)" xlink:href="#ah"/><use transform="matrix(0.013020833333333334,0,0,0.013020833333333334,14.973958333333334,0)" xlink:href="#ax"/><use transform="matrix(0.013020833333333334,0,0,0.013020833333333334,30.729166666666668,0)" xlink:href="#ai"/></g><path d="M65 0l393-574-370-544h210c88 136 192 297 267 435 67-142 176-302 264-435h206L661-564 1053 0H844c-94-144-206-310-287-458C484-308 366-142 273 0H65" id="aF"/><path d="M158 418v-1536h174v179h20c37-59 106-193 324-193 279 0 474 222 474 576 0 356-194 580-473 580-213 0-288-135-325-197h-14v591H158zm492-555c209 0 317-186 317-421 0-232-105-413-317-413-206 0-314 166-314 413 0 249 111 421 314 421" id="aG"/><path d="M613 24c-304 0-509-231-509-576 0-350 205-580 509-580 216 0 392 114 453 309l-173 49c-33-115-133-197-280-197-223 0-326 196-326 419 0 220 103 415 326 415 150 0 252-85 285-206l172 49C1010-95 832 24 613 24" id="aH"/><g id="G"><use transform="matrix(0.013020833333333334,0,0,0.013020833333333334,0,0)" xlink:href="#ak"/><use transform="matrix(0.013020833333333334,0,0,0.013020833333333334,15.768229166666668,0)" xlink:href="#ax"/><use transform="matrix(0.013020833333333334,0,0,0.013020833333333334,31.5234375,0)" xlink:href="#av"/><use transform="matrix(0.013020833333333334,0,0,0.013020833333333334,46.47135416666667,0)" xlink:href="#aF"/><use transform="matrix(0.013020833333333334,0,0,0.013020833333333334,61.02864583333335,0)" xlink:href="#aG"/><use transform="matrix(0.013020833333333334,0,0,0.013020833333333334,77.35677083333334,0)" xlink:href="#av"/><use transform="matrix(0.013020833333333334,0,0,0.013020833333333334,92.90364583333334,0)" xlink:href="#aH"/><use transform="matrix(0.013020833333333334,0,0,0.013020833333333334,108.13802083333334,0)" xlink:href="#an"/><use transform="matrix(0.013020833333333334,0,0,0.013020833333333334,116.6015625,0)" xlink:href="#av"/><use transform="matrix(0.013020833333333334,0,0,0.013020833333333334,132.1484375,0)" xlink:href="#ai"/></g><path d="M481 0L54-1118h197c107 314 236 620 325 951 87-331 217-637 324-951h197L670 0H481" id="aI"/><g id="H"><use transform="matrix(0.013020833333333334,0,0,0.013020833333333334,0,0)" xlink:href="#al"/><use transform="matrix(0.013020833333333334,0,0,0.013020833333333334,16.328125,0)" xlink:href="#av"/><use transform="matrix(0.013020833333333334,0,0,0.013020833333333334,31.875,0)" xlink:href="#aA"/><use transform="matrix(0.013020833333333334,0,0,0.013020833333333334,47.64322916666667,0)" xlink:href="#ah"/><use transform="matrix(0.013020833333333334,0,0,0.013020833333333334,62.2265625,0)" xlink:href="#aI"/><use transform="matrix(0.013020833333333334,0,0,0.013020833333333334,77.21354166666667,0)" xlink:href="#ay"/><use transform="matrix(0.013020833333333334,0,0,0.013020833333333334,83.671875,0)" xlink:href="#am"/><use transform="matrix(0.013020833333333334,0,0,0.013020833333333334,99.66145833333333,0)" xlink:href="#aB"/></g><g id="I"><use transform="matrix(0.013020833333333334,0,0,0.013020833333333334,0,0)" xlink:href="#am"/><use transform="matrix(0.013020833333333334,0,0,0.013020833333333334,15.989583333333334,0)" xlink:href="#aH"/><use transform="matrix(0.013020833333333334,0,0,0.013020833333333334,31.223958333333336,0)" xlink:href="#aH"/><use transform="matrix(0.013020833333333334,0,0,0.013020833333333334,46.458333333333336,0)" xlink:href="#ak"/><use transform="matrix(0.013020833333333334,0,0,0.013020833333333334,62.2265625,0)" xlink:href="#aB"/></g><path d="M645 0H180v-1490h484c435 0 692 280 692 742 0 466-257 748-711 748zM370-168h263c363 0 539-218 539-580 0-358-176-574-521-574H370v1154" id="aJ"/><path d="M232-923l-22-567h194l-22 567H232" id="aK"/><g id="J"><use transform="matrix(0.013020833333333334,0,0,0.013020833333333334,0,0)" xlink:href="#aJ"/><use transform="matrix(0.013020833333333334,0,0,0.013020833333333334,19.244791666666668,0)" xlink:href="#am"/><use transform="matrix(0.013020833333333334,0,0,0.013020833333333334,35.234375,0)" xlink:href="#av"/><use transform="matrix(0.013020833333333334,0,0,0.013020833333333334,50.78125,0)" xlink:href="#aj"/><use transform="matrix(0.013020833333333334,0,0,0.013020833333333334,64.85677083333333,0)" xlink:href="#ax"/><use transform="matrix(0.013020833333333334,0,0,0.013020833333333334,80.61197916666666,0)" xlink:href="#aK"/><use transform="matrix(0.013020833333333334,0,0,0.013020833333333334,88.60677083333333,0)" xlink:href="#an"/></g><g id="K"><use transform="matrix(0.013020833333333334,0,0,0.013020833333333334,0,0)" xlink:href="#ax"/><use transform="matrix(0.013020833333333334,0,0,0.013020833333333334,15.755208333333334,0)" xlink:href="#av"/><use transform="matrix(0.013020833333333334,0,0,0.013020833333333334,31.302083333333336,0)" xlink:href="#av"/><use transform="matrix(0.013020833333333334,0,0,0.013020833333333334,46.848958333333336,0)" xlink:href="#ai"/></g><g id="L"><use transform="matrix(0.013020833333333334,0,0,0.013020833333333334,0,0)" xlink:href="#aj"/><use transform="matrix(0.013020833333333334,0,0,0.013020833333333334,14.075520833333334,0)" xlink:href="#ah"/><use transform="matrix(0.013020833333333334,0,0,0.013020833333333334,29.049479166666668,0)" xlink:href="#an"/><use transform="matrix(0.013020833333333334,0,0,0.013020833333333334,37.7734375,0)" xlink:href="#ak"/><use transform="matrix(0.013020833333333334,0,0,0.013020833333333334,53.54166666666667,0)" xlink:href="#aB"/><use transform="matrix(0.013020833333333334,0,0,0.013020833333333334,63.58072916666667,0)" xlink:href="#ah"/><use transform="matrix(0.013020833333333334,0,0,0.013020833333333334,78.5546875,0)" xlink:href="#an"/><use transform="matrix(0.013020833333333334,0,0,0.013020833333333334,87.27864583333333,0)" xlink:href="#ay"/><use transform="matrix(0.013020833333333334,0,0,0.013020833333333334,93.73697916666666,0)" xlink:href="#am"/><use transform="matrix(0.013020833333333334,0,0,0.013020833333333334,109.72656249999999,0)" xlink:href="#ax"/></g><path d="M158 0v-1118h175l1 205c55-151 181-225 313-225 147 0 245 90 285 228 53-141 190-228 352-228 194 0 352 125 352 384V0h-181v-749c0-161-105-225-225-225-151 0-243 103-243 244V0H807v-767c0-124-93-207-219-207-131 0-250 92-250 270V0H158" id="aL"/><path d="M295 13c-75 0-135-60-135-135s60-135 135-135 135 60 135 135S370 13 295 13" id="aM"/><g id="M"><use transform="matrix(0.013020833333333334,0,0,0.013020833333333334,0,0)" xlink:href="#aL"/><use transform="matrix(0.013020833333333334,0,0,0.013020833333333334,23.359375,0)" xlink:href="#am"/><use transform="matrix(0.013020833333333334,0,0,0.013020833333333334,39.348958333333336,0)" xlink:href="#ai"/><use transform="matrix(0.013020833333333334,0,0,0.013020833333333334,55.677083333333336,0)" xlink:href="#ak"/><use transform="matrix(0.013020833333333334,0,0,0.013020833333333334,71.4453125,0)" xlink:href="#aw"/><use transform="matrix(0.013020833333333334,0,0,0.013020833333333334,77.90364583333333,0)" xlink:href="#av"/><use transform="matrix(0.013020833333333334,0,0,0.013020833333333334,93.45052083333333,0)" xlink:href="#aM"/></g><path d="M49 0l509-1490h400L1480 0h-339l-115-346H497L386 0H49zm524-585h374c-75-213-124-402-192-666-66 268-110 453-182 666" id="aN"/><path d="M537 19C279 19 81-185 81-557c0-382 206-575 454-575 190 0 278 113 318 202h10v-560h300V0H868v-179h-15C812-89 719 19 537 19zm92-241c153 0 240-134 240-336 0-203-86-334-240-334-158 0-240 138-240 334 0 197 84 336 240 336" id="aO"/><path d="M768-1560L288 224H28l480-1784h260" id="aP"/><path d="M681 22C323 22 94-145 85-462h297c10 151 131 226 296 226 163 0 271-77 271-190 0-102-95-149-257-189l-164-41c-252-61-403-188-403-405 0-269 236-449 560-449 330 0 546 183 551 445H941c-11-119-106-188-259-188-156 0-244 72-244 172-3 156 226 185 373 221 250 61 445 186 445 436 0 271-213 446-575 446" id="aQ"/><path d="M513 14c-232 0-385-159-385-421v-711h300v659c0 139 76 222 202 222 127 0 217-86 217-234v-647h301V0H864l-4-232C797-74 683 14 513 14" id="aR"/><path d="M754 19C571 19 479-89 437-179h-14V0H128v-1490h300v560h9c41-89 129-202 319-202 248 0 453 193 453 575 0 372-197 576-455 576zm-92-241c156 0 240-139 240-336 0-196-83-334-240-334-154 0-241 131-241 334 0 202 88 336 241 336" id="aS"/><g id="O"><use transform="matrix(0.015190972222222224,0,0,0.015190972222222224,0,0)" xlink:href="#aN"/><use transform="matrix(0.015190972222222224,0,0,0.015190972222222224,22.513020833333336,0)" xlink:href="#aO"/><use transform="matrix(0.015190972222222224,0,0,0.015190972222222224,42.12456597222223,0)" xlink:href="#aO"/><use transform="matrix(0.015190972222222224,0,0,0.015190972222222224,61.736111111111114,0)" xlink:href="#X"/><use transform="matrix(0.015190972222222224,0,0,0.015190972222222224,80.26909722222223,0)" xlink:href="#Z"/><use transform="matrix(0.015190972222222224,0,0,0.015190972222222224,91.98133680555556,0)" xlink:href="#aP"/><use transform="matrix(0.015190972222222224,0,0,0.015190972222222224,104.05815972222223,0)" xlink:href="#aQ"/><use transform="matrix(0.015190972222222224,0,0,0.015190972222222224,124.42925347222223,0)" xlink:href="#aR"/><use transform="matrix(0.015190972222222224,0,0,0.015190972222222224,143.79774305555557,0)" xlink:href="#aS"/></g><path d="M786 20C389 20 94-260 94-744c0-487 299-766 692-766 339 0 597 194 641 529h-309c-28-162-156-258-326-258-233 0-388 179-388 495 0 323 157 493 387 493 170 0 298-97 328-259h309c-34 277-266 530-642 530" id="aT"/><path d="M128 0v-1118h300V0H128zm150-1264c-91 0-165-68-165-154 0-85 74-154 165-154 90 0 165 69 165 154 0 86-75 154-165 154" id="aU"/><g id="P"><use transform="matrix(0.015190972222222224,0,0,0.015190972222222224,0,0)" xlink:href="#aT"/><use transform="matrix(0.015190972222222224,0,0,0.015190972222222224,23.014322916666668,0)" xlink:href="#aU"/><use transform="matrix(0.015190972222222224,0,0,0.015190972222222224,31.445312500000004,0)" xlink:href="#Z"/><use transform="matrix(0.015190972222222224,0,0,0.015190972222222224,43.35503472222222,0)" xlink:href="#ab"/><use transform="matrix(0.015190972222222224,0,0,0.015190972222222224,61.66015625,0)" xlink:href="#aR"/><use transform="matrix(0.015190972222222224,0,0,0.015190972222222224,81.02864583333334,0)" xlink:href="#aU"/><use transform="matrix(0.015190972222222224,0,0,0.015190972222222224,89.45963541666667,0)" xlink:href="#aq"/></g></defs></g></svg>