<svg xmlns="http://www.w3.org/2000/svg" xmlns:xlink="http://www.w3.org/1999/xlink" xmlns:lucid="lucid" width="3437.5" height="1315.64"><g transform="translate(501.5 241.5)" lucid:page-tab-id="rBBl9LrOrkx7"><path d="M-1000-500h4000v2000h-4000z" fill="#fff"/><path d="M283.3 7a6 6 0 0 1 6-6H1214a6 6 0 0 1 6 6v736.9a6 6 0 0 1-6 6H289.3a6 6 0 0 1-6-6z" stroke="#000" stroke-width="3" fill="#c3f7c8"/><path d="M-460 38a6 6 0 0 1 6-6h688a6 6 0 0 1 6 6v628a6 6 0 0 1-6 6h-688a6 6 0 0 1-6-6z" stroke="#000" stroke-width="3" fill="#cfe4ff"/><g fill="none"><path d="M-420 252.03v-160h80v160z"/><path d="M-380 252.03v-36l-12-8 24-12-24-12 24-12-24-12 24-12-24-12 24-12-12-8v-24" stroke="#000" stroke-width="3"/></g><g fill="none"><path d="M-420 522.03v-160h80v160z"/><path d="M-380 522.03v-36l-12-8 24-12-24-12 24-12-24-12 24-12-24-12 24-12-12-8v-24" stroke="#000" stroke-width="3"/></g><path d="M-380 253.53v107" stroke="#3a414a" stroke-width="3" fill="none"/><path d="M-378.52 253.57h-2.96v-1.54h2.96zM-378.52 362.03h-2.96v-1.53h2.96z" stroke="#3a414a" stroke-width=".05" fill="#3a414a"/><path d="M-398.5 92.03h37M-398.46 92.03H-400M-361.54 92.03h1.54" stroke="#3a414a" stroke-width="3" fill="none"/><path d="M-420 67.02a4.98 4.98 0 0 1 4.98-5h70.04a4.98 4.98 0 0 1 4.98 5 4.98 4.98 0 0 1-4.98 4.98h-70.04a4.98 4.98 0 0 1-4.98-4.98z" fill="none"/><use xlink:href="#a" transform="matrix(1,0,0,1,-420.0000000000002,62.03352527206141) translate(19.053602430555557 21.52777777777778)"/><path d="M-420 582.03h80v60h-80z" fill="none"/><path d="M-380 582.03v12zm-40 12h80m-12 12h-56m12 12h32m-24 12h16m-4 12h-8" stroke="#000" stroke-width="3" fill="none"/><path d="M-380 580.53v-57" stroke="#3a414a" stroke-width="3" fill="none"/><path d="M-378.52 582.03h-2.96v-1.53h2.96zM-378.52 523.57h-2.96v-1.54h2.96z" stroke="#3a414a" stroke-width=".05" fill="#3a414a"/><path d="M-220 362V162h40v200z" fill="none"/><path d="M-200 362l160-100-160-100z" stroke="#000" stroke-width="3" fill="#fff"/><path d="M-44 262h24M-220 322h24M-220 202h24M-120 308v54M-120 216v-54M-190 322h14m-7 7v-14m-7-113h14" stroke="#000" stroke-width="3" fill="none"/><path d="M-221.5 202H-254a6 6 0 0 1-6-6V68a6 6 0 0 1 6-6H58.5" stroke="#3a414a" stroke-width="3" fill="none"/><path d="M-220 203.47h-1.54v-2.94h1.54z" stroke="#3a414a" stroke-width=".05" fill="#3a414a"/><path d="M58.46 62H60M-18.5 262H54a6 6 0 0 0 6-6V63.5" stroke="#3a414a" stroke-width="3" fill="none"/><path d="M-18.46 263.48H-20v-2.96h1.54z" stroke="#3a414a" stroke-width=".05" fill="#3a414a"/><path d="M60 63.54V62M-378.5 322h157M-378.46 322H-380" stroke="#3a414a" stroke-width="3" fill="none"/><path d="M-220 323.48h-1.54v-2.96h1.54z" stroke="#3a414a" stroke-width=".05" fill="#3a414a"/><path d="M-60 162h80v60h-80z" fill="none"/><path d="M-20 162v12zm-40 12h80M8 186h-56m12 12h32m-24 12h16m-4 12h-8" stroke="#000" stroke-width="3" fill="none"/><path d="M-120 160.5V128a6 6 0 0 1 6-6h88a6 6 0 0 1 6 6v32.5" stroke="#3a414a" stroke-width="3" fill="none"/><path d="M-118.53 162h-2.94v-1.54h2.94zM-18.52 162h-2.96v-1.54h2.96z" stroke="#3a414a" stroke-width=".05" fill="#3a414a"/><path d="M-160 368.03a6 6 0 0 1 6-6h68a6 6 0 0 1 6 6v19a6 6 0 0 1-6 6h-68a6 6 0 0 1-6-6z" fill="none"/><use xlink:href="#b" transform="matrix(1,0,0,1,-160,362.0335252720614) translate(18.553602430555557 23.58376736111111)"/><path d="M-138.5 362l37 .03M-138.46 362H-140M-101.54 362.03h1.54" stroke="#3a414a" stroke-width="3" fill="none"/><path d="M-265.85 595.9a6 6 0 0 1 6-6h279.7a6 6 0 0 1 6 6v46.4a6 6 0 0 1-6 6h-279.7a6 6 0 0 1-6-6z" fill="none"/><use xlink:href="#c" transform="matrix(1,0,0,1,-260.84484375,594.8980208333331) translate(0 39.05078125)"/><use xlink:href="#d" transform="matrix(1,0,0,1,-260.84484375,594.8980208333331) translate(81.77734375 39.05078125)"/><path d="M126 248.07a1.07 1.07 0 0 1 1.08-1.07h77.85a1.07 1.07 0 0 1 1.07 1.07 1.07 1.07 0 0 1-1.07 1.08h-77.86a1.07 1.07 0 0 1-1.07-1.08z" fill="none"/><use xlink:href="#e" transform="matrix(1,0,0,1,125.99999999999989,246.9999999999999) translate(21.538411458333336 21.52777777777778)"/><path d="M61.5 261h37.6a.1.1 0 0 0 .1-.1.1.1 0 0 1 .1-.1h37.6M61.54 261H60M136.86 260.8h1.54" stroke="#3a414a" stroke-width="3" fill="none"/><path d="M139.5 242.5v38" stroke="#000" stroke-width="3" stroke-linecap="round" fill="none"/><path d="M-363 429.58a6 6 0 0 1 6-6h56.63a6 6 0 0 1 6 6v24.9a6 6 0 0 1-6 6H-357a6 6 0 0 1-6-6z" fill="none"/><use xlink:href="#f" transform="matrix(1,0,0,1,-358,428.5845148553946) translate(0 21.58376736111111)"/><use xlink:href="#g" transform="matrix(1,0,0,1,-358,428.5845148553946) translate(29.307725694444443 21.58376736111111)"/><path d="M-366 159.6a6 6 0 0 1 6-6h56.63a6 6 0 0 1 6 6v24.88a6 6 0 0 1-6 6H-360a6 6 0 0 1-6-6z" fill="none"/><use xlink:href="#f" transform="matrix(1,0,0,1,-361,158.58451485539473) translate(0 21.58376736111111)"/><use xlink:href="#g" transform="matrix(1,0,0,1,-361,158.58451485539473) translate(29.307725694444443 21.58376736111111)"/><path d="M683 603V403h40v200z" fill="none"/><path d="M703 603l160-100-160-100z" stroke="#000" stroke-width="3" fill="#fff"/><path d="M859 503h24M683 563h24M683 443h24M783 549v54M783 457v-54M713 563h14m-7 7v-14m-7-113h14" stroke="#000" stroke-width="3" fill="none"/><path d="M481.5 541.25v43.5" stroke="#000" stroke-width="3" stroke-linecap="round" fill="none"/><path d="M681.5 563h-197" stroke="#3a414a" stroke-width="3" fill="none"/><path d="M683 564.48h-1.54v-2.96H683z" stroke="#3a414a" stroke-width=".05" fill="#3a414a"/><path d="M484.54 563H480" stroke="#3a414a" stroke-width="3" fill="none"/><path d="M413 551.08a1.07 1.07 0 0 1 1.07-1.08h77.86a1.07 1.07 0 0 1 1.07 1.08 1.07 1.07 0 0 1-1.07 1.07h-77.86a1.07 1.07 0 0 1-1.07-1.07z" fill="none"/><use xlink:href="#e" transform="matrix(1,0,0,1,412.9999999999998,550) translate(21.538411458333336 21.52777777777778)"/><path d="M371.5 419.76v40.47" stroke="#000" stroke-width="3" stroke-linecap="round" fill="none"/><path d="M303 429.58a1.07 1.07 0 0 1 1.07-1.07h77.86a1.07 1.07 0 0 1 1.07 1.08 1.07 1.07 0 0 1-1.07 1.08h-77.86a1.07 1.07 0 0 1-1.07-1.08z" fill="none"/><use xlink:href="#h" transform="matrix(1,0,0,1,303,428.5097150817382) translate(23.57834201388889 21.52777777777778)"/><path d="M423 403h160v80H423z" fill="none"/><path d="M423 443h36l8-12 12 24 12-24 12 24 12-24 12 24 12-24 12 24 8-12h24" stroke="#000" stroke-width="2" fill="none"/><use xlink:href="#i" transform="matrix(1,0,0,1,423,471.00000000000006) translate(40.41666666666667 23.08376736111111)"/><use xlink:href="#j" transform="matrix(1,0,0,1,423,471.00000000000006) translate(60.96788194444445 23.08376736111111)"/><use xlink:href="#g" transform="matrix(1,0,0,1,423,471.00000000000006) translate(90.27560763888889 23.08376736111111)"/><path d="M421.5 443h-47" stroke="#3a414a" stroke-width="3" fill="none"/><path d="M426 442h-3v2h3v.48h-4.54v-2.96H426zM374.54 444.48H373v-2.96h1.54z" stroke="#3a414a" stroke-width=".05" fill="#3a414a"/><path d="M584.5 443h97" stroke="#3a414a" stroke-width="3" fill="none"/><path d="M584.54 444.48H580V444h3v-2h-3v-.48h4.54zM683 444.48h-1.54v-2.96H683z" stroke="#3a414a" stroke-width=".05" fill="#3a414a"/><path d="M801.75 143h120v120h-120z" fill="none"/><path d="M801.75 203h54m0-36v72m12-36h54m-54-36v72" stroke="#000" stroke-width="3" fill="none"/><use xlink:href="#k" transform="matrix(1,0,0,1,801.75,245.00000000000006) translate(23.655598958333336 23.08376736111111)"/><use xlink:href="#l" transform="matrix(1,0,0,1,801.75,245.00000000000006) translate(46.13823784722223 23.08376736111111)"/><path d="M843 403h80v60h-80z" fill="none"/><path d="M883 403v12zm-40 12h80m-12 12h-56m12 12h32m-24 12h16m-4 12h-8" stroke="#000" stroke-width="2" fill="none"/><path d="M783 401.5V369a6 6 0 0 1 6-6h88a6 6 0 0 1 6 6v32.5" stroke="#3a414a" stroke-width="3" fill="none"/><path d="M784.48 403h-2.96v-1.54h2.96zM884.48 406H884v-3h-2v3h-.48v-4.54h2.96z" stroke="#3a414a" stroke-width=".05" fill="#3a414a"/><path d="M764.5 604.5h35.75" stroke="#000" stroke-width="3" stroke-linecap="round" fill="none"/><path d="M743 607.08a1.07 1.07 0 0 1 1.08-1.08h77.84a1.07 1.07 0 0 1 1.08 1.08 1.07 1.07 0 0 1-1.08 1.07h-77.84a1.07 1.07 0 0 1-1.08-1.07z" fill="none"/><use xlink:href="#a" transform="matrix(1,0,0,1,743,606) translate(19.053602430555557 21.52777777777778)"/><path d="M800.25 203H649a6 6 0 0 0-6 6v228a6 6 0 0 0 6 6h32.5" stroke="#3a414a" stroke-width="3" fill="none"/><path d="M801.75 204.47h-1.54v-2.94h1.55zM683 444.48h-1.54v-2.96H683z" stroke="#3a414a" stroke-width=".05" fill="#3a414a"/><path d="M923.25 203H1057a6 6 0 0 1 6 6v288a6 6 0 0 1-6 6H884.5" stroke="#3a414a" stroke-width="3" fill="none"/><path d="M923.3 204.47h-1.55v-2.94h1.54zM884.54 504.48H883v-2.96h1.54z" stroke="#3a414a" stroke-width=".05" fill="#3a414a"/><path d="M683 1h140v60H683z" fill="none"/><path d="M683 43h42c0 4.86 3.08 7.98 7 7.98s7-3.12 7-6.96c0-3.9-3.08-7.02-7-7.02s-7 3.12-7 7.02M739 43l37.8-24m4.2 24c0 4.86 3.08 7.98 7 7.98s7-3.12 7-6.96c0-3.9-3.08-7.02-7-7.02s-7 3.12-7 7.02M795 43h28" stroke="#000" stroke-width="3" fill="#fff"/><path d="M863 3h160v80H863z" fill="none"/><path d="M863 43h36l8-12 12 24 12-24 12 24 12-24 12 24 12-24 12 24 8-12h24" stroke="#000" stroke-width="2" fill="none"/><use xlink:href="#i" transform="matrix(1,0,0,1,863,71) translate(47.42621527777778 23.08376736111111)"/><use xlink:href="#m" transform="matrix(1,0,0,1,863,71) translate(67.97743055555556 23.08376736111111)"/><use xlink:href="#g" transform="matrix(1,0,0,1,863,71) translate(83.26605902777777 23.08376736111111)"/><path d="M681.5 43H649a6 6 0 0 0-6 6v152.5" stroke="#3a414a" stroke-width="3" fill="none"/><path d="M683 44.48h-1.54v-2.95H683z" stroke="#3a414a" stroke-width=".05" fill="#3a414a"/><path d="M643 201.46V203M824.5 43h37" stroke="#3a414a" stroke-width="3" fill="none"/><path d="M824.54 44.48H823v-2.95h1.54zM866 42h-3v2h3v.48h-4.54v-2.95H866z" stroke="#3a414a" stroke-width=".05" fill="#3a414a"/><path d="M1024.5 43h32.5a6 6 0 0 1 6 6v152.5" stroke="#3a414a" stroke-width="3" fill="none"/><path d="M1024.54 44.48H1020V44h3v-2h-3v-.48h4.54z" stroke="#3a414a" stroke-width=".05" fill="#3a414a"/><path d="M1063 201.46V203M1144 410h36M1144.04 410h-1.54M1179.96 410h1.54" stroke="#3a414a" stroke-width="3" fill="none"/><path d="M1120 384.5a6 6 0 0 1 6-6h68a6 6 0 0 1 6 6v26a6 6 0 0 1-6 6h-68a6 6 0 0 1-6-6z" fill="none"/><use xlink:href="#n" transform="matrix(1,0,0,1,1120,378.49999999999994) translate(16.03081597222222 27.08376736111111)"/><path d="M1162.42 411.5v89M1162.42 411.54V410M1162.42 500.46V502" stroke="#3a414a" stroke-width="3" fill="none"/><path d="M1277-63.64a6 6 0 0 1 6-6h1630a6 6 0 0 1 6 6v1130.28a6 6 0 0 1-6 6H1283a6 6 0 0 1-6-6z" stroke="#000" stroke-width="3" fill="#ffdda6"/><path d="M884.5 503h453" stroke="#3a414a" stroke-width="3" fill="none"/><path d="M884.54 504.48H883v-2.96h1.54zM1342 502h-3v2h3v.48h-4.54v-2.96h4.54z" stroke="#3a414a" stroke-width=".05" fill="#3a414a"/><path d="M2116 211v200h40V211z" fill="none"/><path d="M2136 211l160 100-160 100z" stroke="#000" stroke-width="2" fill="#fff"/><path d="M2292 311h24M2116 251h24M2116 371h24M2216 265v-54M2216 357v54M2146 251h14m-7-7v14m-7 113h14" stroke="#000" stroke-width="2" fill="none"/><path d="M2116 613v200h40V613z" fill="none"/><path d="M2136 613l160 100-160 100z" stroke="#000" stroke-width="2" fill="#fff"/><path d="M2292 713h24M2116 653h24M2116 773h24M2216 667v-54M2216 759v54M2146 653h14m-7-7v14m-7 113h14" stroke="#000" stroke-width="2" fill="none"/><path d="M2176 411h80v60h-80z" fill="none"/><path d="M2216 411v12zm-40 12h80m-12 12h-56m12 12h32m-24 12h16m-4 12h-8" stroke="#000" stroke-width="2" fill="none"/><path d="M2176 813h80v60h-80z" fill="none"/><path d="M2216 813v12zm-40 12h80m-12 12h-56m12 12h32m-24 12h16m-4 12h-8" stroke="#000" stroke-width="2" fill="none"/><path d="M2187 574h63" stroke="#000" stroke-width="2" stroke-linecap="round" fill="none"/><path d="M2216 612v-38" stroke="#3a414a" stroke-width="2" fill="none"/><path d="M2216.97 613h-1.94v-1.03h1.94z" stroke="#3a414a" stroke-width=".05" fill="#3a414a"/><path d="M2216 574.03V573" stroke="#3a414a" stroke-width="2" fill="none"/><path d="M2096 535.9a6 6 0 0 1 6-6h228a6 6 0 0 1 6 6v48a6 6 0 0 1-6 6h-228a6 6 0 0 1-6-6z" fill="none"/><use xlink:href="#b" transform="matrix(1,0,0,1,2096,529.8980208333332) translate(98.55360243055556 38.083767361111114)"/><path d="M2182 172h68" stroke="#000" stroke-width="2" stroke-linecap="round" fill="none"/><path d="M2216 210v-38M2216 209.97V211M2216 172.03V171" stroke="#3a414a" stroke-width="2" fill="none"/><path d="M2116 142a6 6 0 0 1 6-6h188a6 6 0 0 1 6 6v23a6 6 0 0 1-6 6h-188a6 6 0 0 1-6-6z" fill="none"/><use xlink:href="#b" transform="matrix(1,0,0,1,2116,135.9999999999999) translate(78.55360243055556 25.58376736111111)"/><path d="M2317 713h113a6 6 0 0 0 6-6V317a6 6 0 0 0-6-6h-113" stroke="#3a414a" stroke-width="2" fill="none"/><path d="M2317.03 713.98H2316V712h1.03zM2317.03 311.98H2316v-1.96h1.03z" stroke="#3a414a" stroke-width=".05" fill="#3a414a"/><path d="M2437 512h278" stroke="#000" stroke-width="2" stroke-linecap="round" fill="none"/><path d="M2756 353v120h-80V353z" fill="none"/><path d="M2716 353v36m40 0h-80l40 36 40-36zm0 36h-80m40 0v48z" stroke="#000" stroke-width="2" fill="#fff"/><path d="M2716 474v38" stroke="#3a414a" stroke-width="2" fill="none"/><path d="M2716.97 474.03h-1.94V473h1.94z" stroke="#3a414a" stroke-width=".05" fill="#3a414a"/><path d="M2716 511.97V513" stroke="#3a414a" stroke-width="2" fill="none"/><path d="M2684.5 274h63" stroke="#000" stroke-width="2" stroke-linecap="round" fill="none"/><path d="M2716 352v-78" stroke="#3a414a" stroke-width="2" fill="none"/><path d="M2716.97 353h-1.94v-1.03h1.94z" stroke="#3a414a" stroke-width=".05" fill="#3a414a"/><path d="M2716 274.03V273" stroke="#3a414a" stroke-width="2" fill="none"/><path d="M2696 379a6 6 0 0 1 6-6h228a6 6 0 0 1 6 6v48a6 6 0 0 1-6 6h-228a6 6 0 0 1-6-6z" fill="none"/><use xlink:href="#o" transform="matrix(1,0,0,1,2696,372.9999999999999) translate(71.69813368055556 38.083767361111114)"/><use xlink:href="#p" transform="matrix(1,0,0,1,2696,372.9999999999999) translate(126.34223090277777 38.083767361111114)"/><path d="M2596 239a6 6 0 0 1 6-6h228a6 6 0 0 1 6 6v48a6 6 0 0 1-6 6h-228a6 6 0 0 1-6-6z" fill="none"/><use xlink:href="#q" transform="matrix(1,0,0,1,2596,232.9999999999999) translate(101.03841145833334 38.083767361111114)"/><path d="M2115 653h-193a6 6 0 0 1-6-6V374" stroke="#3a414a" stroke-width="2" fill="none"/><path d="M2116 653.98h-1.03V652h1.03z" stroke="#3a414a" stroke-width=".05" fill="#3a414a"/><path d="M1916 374.03V373" stroke="#3a414a" stroke-width="2" fill="none"/><path d="M2176 328a6 6 0 0 1 6-6h228a6 6 0 0 1 6 6v48a6 6 0 0 1-6 6h-228a6 6 0 0 1-6-6z" fill="none"/><use xlink:href="#r" transform="matrix(1,0,0,1,2176,321.9999999999999) translate(83.06423611111111 38.083767361111114)"/><path d="M2176 739a6 6 0 0 1 6-6h228a6 6 0 0 1 6 6v48a6 6 0 0 1-6 6h-228a6 6 0 0 1-6-6z" fill="none"/><use xlink:href="#r" transform="matrix(1,0,0,1,2176,732.9999999999999) translate(83.06423611111111 38.083767361111114)"/><path d="M2115 371h-193a6 6 0 0 0-6 6v153" stroke="#3a414a" stroke-width="2" fill="none"/><path d="M2116 371.98h-1.03v-1.96h1.03z" stroke="#3a414a" stroke-width=".05" fill="#3a414a"/><path d="M1916 529.97V531" stroke="#3a414a" stroke-width="2" fill="none"/><path d="M1704.5 76h63" stroke="#000" stroke-width="2" stroke-linecap="round" fill="none"/><g fill="none"><path d="M1776 77v160h-80V77z"/><path d="M1736 77v36l12 8-24 12 24 12-24 12 24 12-24 12 24 12-24 12 12 8v24" stroke="#000" stroke-width="2"/></g><g fill="none"><path d="M1776 251v160h-80V251z"/><path d="M1736 251v36l12 8-24 12 24 12-24 12 24 12-24 12 24 12-24 12 12 8v24" stroke="#000" stroke-width="2"/></g><path d="M1672 317a6 6 0 0 1 6-6h228a6 6 0 0 1 6 6v48a6 6 0 0 1-6 6h-228a6 6 0 0 1-6-6z" fill="none"/><use xlink:href="#s" transform="matrix(1,0,0,1,1672,310.9999999999999) translate(88.45703125 38.083767361111114)"/><use xlink:href="#g" transform="matrix(1,0,0,1,1672,310.9999999999999) translate(122.23524305555556 38.083767361111114)"/><path d="M1619 37a6 6 0 0 1 6-6h228a6 6 0 0 1 6 6v48a6 6 0 0 1-6 6h-228a6 6 0 0 1-6-6z" fill="none"/><use xlink:href="#t" transform="matrix(1,0,0,1,1619,30.999999999999886) translate(99.97504340277777 38.083767361111114)"/><path d="M2115 251h-378" stroke="#3a414a" stroke-width="2" fill="none"/><path d="M2116 251.97h-1.03v-1.94h1.03z" stroke="#3a414a" stroke-width=".05" fill="#3a414a"/><path d="M1737.03 251H1736M1736 250v-12" stroke="#3a414a" stroke-width="2" fill="none"/><path d="M1736.97 251h-1.94v-1.03h1.94zM1736.97 238.03h-1.94V237h1.94z" stroke="#3a414a" stroke-width=".05" fill="#3a414a"/><path d="M1696 411h80v60h-80z" fill="none"/><path d="M1736 411v12zm-40 12h80m-12 12h-56m12 12h32m-24 12h16m-4 12h-8" stroke="#000" stroke-width="2" fill="none"/><path d="M1672 144a6 6 0 0 1 6-6h228a6 6 0 0 1 6 6v48a6 6 0 0 1-6 6h-228a6 6 0 0 1-6-6z" fill="none"/><use xlink:href="#u" transform="matrix(1,0,0,1,1672,137.99999999999991) translate(88.69032118055556 38.083767361111114)"/><use xlink:href="#g" transform="matrix(1,0,0,1,1672,137.99999999999991) translate(122.001953125 38.083767361111114)"/><g fill="none"><path d="M1756 592v160h-80V592z"/><path d="M1716 592v36l12 8-24 12 24 12-24 12 24 12-24 12 24 12-24 12 12 8v24" stroke="#000" stroke-width="2"/></g><g fill="none"><path d="M1676 952V792h80v160z"/><path d="M1716 952v-36l-12-8 24-12-24-12 24-12-24-12 24-12-24-12 24-12-12-8v-24" stroke="#000" stroke-width="2"/></g><path d="M1676 952h80v60h-80z" fill="none"/><path d="M1716 952v12zm-40 12h80m-12 12h-56m12 12h32m-24 12h16m-4 12h-8" stroke="#000" stroke-width="2" fill="none"/><path d="M1716 791v-38" stroke="#3a414a" stroke-width="2" fill="none"/><path d="M1716.97 792h-1.94v-1.03h1.94zM1716.97 753.03h-1.94V752h1.94z" stroke="#3a414a" stroke-width=".05" fill="#3a414a"/><path d="M2115 773h-393a6 6 0 0 0-6 6v3" stroke="#3a414a" stroke-width="2" fill="none"/><path d="M2116 773.98h-1.03V772h1.03z" stroke="#3a414a" stroke-width=".05" fill="#3a414a"/><path d="M1716 781.97V783" stroke="#3a414a" stroke-width="2" fill="none"/><path d="M1684.5 593h63" stroke="#000" stroke-width="2" stroke-linecap="round" fill="none"/><path d="M1599 557a6 6 0 0 1 6-6h228a6 6 0 0 1 6 6v48a6 6 0 0 1-6 6h-228a6 6 0 0 1-6-6z" fill="none"/><use xlink:href="#t" transform="matrix(1,0,0,1,1599,550.9999999999999) translate(99.97504340277777 38.083767361111114)"/><path d="M1652 639.55a6 6 0 0 1 6-6h228a6 6 0 0 1 6 6v48a6 6 0 0 1-6 6h-228a6 6 0 0 1-6-6z" fill="none"/><use xlink:href="#v" transform="matrix(1,0,0,1,1652,633.5509895833333) translate(93.76302083333333 38.083767361111114)"/><use xlink:href="#w" transform="matrix(1,0,0,1,1652,633.5509895833333) translate(109.05164930555554 38.083767361111114)"/><path d="M1652 838a6 6 0 0 1 6-6h228a6 6 0 0 1 6 6v48a6 6 0 0 1-6 6h-228a6 6 0 0 1-6-6z" fill="none"/><use xlink:href="#f" transform="matrix(1,0,0,1,1652,831.9999999999999) translate(90.69227430555556 38.083767361111114)"/><use xlink:href="#g" transform="matrix(1,0,0,1,1652,831.9999999999999) translate(120 38.083767361111114)"/><path d="M1977 172h68" stroke="#000" stroke-width="2" stroke-linecap="round" fill="none"/><path d="M1895 133a6 6 0 0 1 6-6h228a6 6 0 0 1 6 6v48a6 6 0 0 1-6 6h-228a6 6 0 0 1-6-6z" fill="none"/><use xlink:href="#x" transform="matrix(1,0,0,1,1895,126.99999999999989) translate(90.70855034722223 38.083767361111114)"/><path d="M2011 172v78M2011 172.03V171M2011 249.97V251" stroke="#3a414a" stroke-width="2" fill="none"/><path d="M2088 852h-68" stroke="#000" stroke-width="2" stroke-linecap="round" fill="none"/><path d="M1934 842.1a6 6 0 0 1 6-6h228a6 6 0 0 1 6 6v48a6 6 0 0 1-6 6h-228a6 6 0 0 1-6-6z" fill="none"/><use xlink:href="#y" transform="matrix(1,0,0,1,1934,836.1019791666666) translate(92.94921875 38.083767361111114)"/><path d="M2053.26 850v-76M2053.26 849.97V854M2053.26 774.03V773" stroke="#3a414a" stroke-width="2" fill="none"/><path d="M2077 251.2V92" stroke="#000" stroke-width="2" stroke-linecap="round" fill="none"/><path d="M2136 52h160v80h-160z" fill="none"/><path d="M2136 92h36l8-12 12 24 12-24 12 24 12-24 12 24 12-24 12 24 8-12h24" stroke="#000" stroke-width="2" fill="none"/><path d="M2077 92h68" stroke="#000" stroke-width="2" stroke-linecap="round" fill="none"/><path d="M2096 37a6 6 0 0 1 6-6h228a6 6 0 0 1 6 6v48a6 6 0 0 1-6 6h-228a6 6 0 0 1-6-6z" fill="none"/><use xlink:href="#z" transform="matrix(1,0,0,1,2096,30.999999999999886) translate(81.48546006944444 38.083767361111114)"/><use xlink:href="#g" transform="matrix(1,0,0,1,2096,30.999999999999886) translate(129.20681423611111 38.083767361111114)"/><path d="M2297 92h73.12a1 1 0 0 1 1 1v217" stroke="#3a414a" stroke-width="2" fill="none"/><path d="M2297.03 92.97H2296v-1.94h1.03z" stroke="#3a414a" stroke-width=".05" fill="#3a414a"/><path d="M2371.12 309.97V311" stroke="#3a414a" stroke-width="2" fill="none"/><path d="M2079 653.2V522" stroke="#000" stroke-width="2" stroke-linecap="round" fill="none"/><path d="M2138.5 482h160v80h-160z" fill="none"/><path d="M2138.5 522h36l8-12 12 24 12-24 12 24 12-24 12 24 12-24 12 24 8-12h24" stroke="#000" stroke-width="2" fill="none"/><path d="M2079 522h68" stroke="#000" stroke-width="2" stroke-linecap="round" fill="none"/><path d="M2098.5 469a6 6 0 0 1 6-6h228a6 6 0 0 1 6 6v48a6 6 0 0 1-6 6h-228a6 6 0 0 1-6-6z" fill="none"/><g><use xlink:href="#z" transform="matrix(1,0,0,1,2098.5,462.9999999999999) translate(81.48546006944444 38.083767361111114)"/><use xlink:href="#g" transform="matrix(1,0,0,1,2098.5,462.9999999999999) translate(129.20681423611111 38.083767361111114)"/></g><path d="M2299.5 522h72.62a1 1 0 0 1 1 1v189" stroke="#3a414a" stroke-width="2" fill="none"/><path d="M2299.53 522.98h-1.03V521h1.03z" stroke="#3a414a" stroke-width=".05" fill="#3a414a"/><path d="M2373.12 711.97V713" stroke="#3a414a" stroke-width="2" fill="none"/><path d="M2436 959.6a6 6 0 0 1 6-6h368.67a6 6 0 0 1 6 6v46.4a6 6 0 0 1-6 6H2442a6 6 0 0 1-6-6z" fill="none"/><g><use xlink:href="#A" transform="matrix(1,0,0,1,2441,958.5915625) translate(0 39.05078125)"/><use xlink:href="#B" transform="matrix(1,0,0,1,2441,958.5915625) translate(212.32421875 39.05078125)"/></g><path d="M1339 463h160v80h-160z" fill="none"/><path d="M1339 503h36l8-12 12 24 12-24 12 24 12-24 12 24 12-24 12 24 8-12h24" stroke="#000" stroke-width="2" fill="none"/><path d="M1373.5 448.3a6 6 0 0 1 6-6h88a6 6 0 0 1 6 6v48a6 6 0 0 1-6 6h-88a6 6 0 0 1-6-6z" fill="none"/><g><use xlink:href="#v" transform="matrix(1,0,0,1,1373.5,442.2957812499999) translate(27.701822916666668 38.083767361111114)"/><use xlink:href="#g" transform="matrix(1,0,0,1,1373.5,442.2957812499999) translate(42.990451388888886 38.083767361111114)"/></g><g fill="none"><path d="M1509 689.9v-160h80v160z"/><path d="M1549 689.9v-36l-12-8 24-12-24-12 24-12-24-12 24-12-24-12 24-12-12-8v-24" stroke="#000" stroke-width="2"/></g><path d="M1509 689.9h80v60h-80z" fill="none"/><path d="M1549 689.9v12zm-40 12h80m-12 12h-56m12 12h32m-24 12h16m-4 12h-8" stroke="#000" stroke-width="2" fill="none"/><path d="M1559 595.9a6 6 0 0 1 6-6h42.6a6 6 0 0 1 6 6v24.9a6 6 0 0 1-6 6H1565a6 6 0 0 1-6-6z" fill="none"/><g><use xlink:href="#v" transform="matrix(1,0,0,1,1564.0000000000002,594.8980208333331) translate(0.20182291666666785 21.58376736111111)"/><use xlink:href="#g" transform="matrix(1,0,0,1,1564.0000000000002,594.8980208333331) translate(15.49045138888889 21.58376736111111)"/></g><path d="M1549 528.4V509a6 6 0 0 0-6-6h-42.5" stroke="#3a414a" stroke-width="3" fill="none"/><path d="M1550.47 532.9h-.47v-3h-2v3h-.47v-4.54h2.94zM1500.54 504.48H1496V504h3v-2h-3v-.48h4.54z" stroke="#3a414a" stroke-width=".05" fill="#3a414a"/><path d="M1500.5 503h206.25a.75.75 0 0 0 .75-.75.75.75 0 0 1 .75-.75h206.25" stroke="#3a414a" stroke-width="3" fill="none"/><path d="M1500.54 504.48H1496V504h3v-2h-3v-.48h4.54z" stroke="#3a414a" stroke-width=".05" fill="#3a414a"/><path d="M1914.46 501.5h1.54" stroke="#3a414a" stroke-width="3" fill="none"/><path d="M580.3 660.2a6 6 0 0 1 6-6H917a6 6 0 0 1 6 6v46.4a6 6 0 0 1-6 6H586.3a6 6 0 0 1-6-6z" fill="none"/><g><use xlink:href="#C" transform="matrix(1,0,0,1,585.31421875,659.1918536670272) translate(0 39.05078125)"/><use xlink:href="#D" transform="matrix(1,0,0,1,585.31421875,659.1918536670272) translate(203.0078125 39.05078125)"/></g><path d="M-500-234a6 6 0 0 1 6-6h748a6 6 0 0 1 6 6v208a6 6 0 0 1-6 6h-748a6 6 0 0 1-6-6z" stroke="#000" stroke-width="3" fill="#fff7a1"/><path d="M-480-214a6 6 0 0 1 6-6h233.45a6 6 0 0 1 6 6v48a6 6 0 0 1-6 6H-474a6 6 0 0 1-6-6z" fill="none"/><g><use xlink:href="#E" transform="matrix(1,0,0,1,-475,-215) translate(0 39.55078125)"/></g><path d="M-480-154a6 6 0 0 1 6-6h688a6 6 0 0 1 6 6V-7.57a6 6 0 0 1-6 6h-688a6 6 0 0 1-6-6z" fill="none"/><g><use xlink:href="#F" transform="matrix(1,0,0,1,-475,-155) translate(3.6111111111111107 45.48177083333333)"/><use xlink:href="#G" transform="matrix(1,0,0,1,-475,-155) translate(22.22222222222222 45.48177083333333)"/><use xlink:href="#H" transform="matrix(1,0,0,1,-475,-155) translate(114.57899305555557 45.48177083333333)"/><use xlink:href="#I" transform="matrix(1,0,0,1,-475,-155) translate(142.61284722222223 45.48177083333333)"/><use xlink:href="#J" transform="matrix(1,0,0,1,-475,-155) translate(247.82118055555554 45.48177083333333)"/><use xlink:href="#K" transform="matrix(1,0,0,1,-475,-155) translate(270.29513888888886 45.48177083333333)"/><use xlink:href="#L" transform="matrix(1,0,0,1,-475,-155) translate(358.17274305555554 45.48177083333333)"/><use xlink:href="#M" transform="matrix(1,0,0,1,-475,-155) translate(390.12586805555554 45.48177083333333)"/><use xlink:href="#N" transform="matrix(1,0,0,1,-475,-155) translate(493.06857638888886 45.48177083333333)"/><use xlink:href="#O" transform="matrix(1,0,0,1,-475,-155) translate(22.22222222222222 84.20052083333333)"/><use xlink:href="#P" transform="matrix(1,0,0,1,-475,-155) translate(136.83159722222223 84.20052083333333)"/><use xlink:href="#Q" transform="matrix(1,0,0,1,-475,-155) translate(290.4513888888889 84.20052083333333)"/><use xlink:href="#R" transform="matrix(1,0,0,1,-475,-155) translate(432.8342013888889 84.20052083333333)"/><use xlink:href="#J" transform="matrix(1,0,0,1,-475,-155) translate(472.0789930555556 84.20052083333333)"/><use xlink:href="#S" transform="matrix(1,0,0,1,-475,-155) translate(494.5529513888889 84.20052083333333)"/><use xlink:href="#T" transform="matrix(1,0,0,1,-475,-155) translate(567.3784722222223 84.20052083333333)"/><use xlink:href="#U" transform="matrix(1,0,0,1,-475,-155) translate(0 122.91927083333334)"/></g><defs><path d="M154 0v-137l495-537c165-179 249-281 249-418 0-156-121-253-280-253-170 0-278 110-278 278H158c0-264 200-443 465-443 266 0 455 183 455 416 0 161-73 288-336 568L416-179v12h687V0H154" id="V"/><path d="M120-303v-155l652-1032h231v1020h202v167h-202V0H821v-303H120zm702-167v-782h-12L323-482v12h499" id="W"/><path d="M600 0L52-1490h200c166 485 304 806 458 1336 156-533 285-846 449-1336h202L819 0H600" id="X"/><g id="a"><use transform="matrix(0.010850694444444444,0,0,0.010850694444444444,0,0)" xlink:href="#V"/><use transform="matrix(0.010850694444444444,0,0,0.010850694444444444,13.20529513888889,0)" xlink:href="#W"/><use transform="matrix(0.010850694444444444,0,0,0.010850694444444444,27.56076388888889,0)" xlink:href="#X"/></g><g id="b"><use transform="matrix(0.010850694444444444,0,0,0.010850694444444444,0,0)" xlink:href="#V"/><use transform="matrix(0.010850694444444444,0,0,0.010850694444444444,13.20529513888889,0)" xlink:href="#W"/><use transform="matrix(0.010850694444444444,0,0,0.010850694444444444,27.56076388888889,0)" xlink:href="#X"/></g><path d="M749-1490V0H444v-1221h-10L93-980v-279l329-231h327" id="Y"/><path d="M124 0v-220l528-495c135-132 210-216 210-336 0-133-98-215-231-215-139 0-229 88-229 233H110c0-290 214-477 523-477 315 0 525 182 525 440 0 167-80 305-385 586L548-262v11h630V0H124" id="Z"/><path d="M571 0L49-1490h339c138 427 271 775 384 1244 111-471 237-815 371-1244h337L970 0H571" id="aa"/><g id="c"><use transform="matrix(0.01953125,0,0,0.01953125,0,0)" xlink:href="#Y"/><use transform="matrix(0.01953125,0,0,0.01953125,17.24609375,0)" xlink:href="#Z"/><use transform="matrix(0.01953125,0,0,0.01953125,42.44140625,0)" xlink:href="#aa"/></g><path d="M135 0v-1490h581c339 0 533 192 533 485 0 204-94 351-264 424L1302 0H964L680-532H440V0H135zm305-779h220c186 0 274-77 274-226 0-150-88-233-275-233H440v459" id="ab"/><path d="M633 22C291 22 81-200 81-553c0-345 210-579 537-579 292 0 525 185 525 567v84H378c7 183 109 277 260 277 105 0 184-46 216-132l272 51C1071-99 893 22 633 22zM380-669h474c-15-146-94-237-233-237-143 0-229 99-241 237" id="ac"/><path d="M750-1118v229H516V0H217v-889H20v-229h197v-86c0-238 156-356 363-356 94 0 178 20 215 31l-54 226c-25-7-61-15-100-15-123-3-131 84-125 200h234" id="ad"/><path d="M128 0v-1118h290v195h12c54-169 184-238 367-200v268c-27-8-86-15-130-15-138 0-239 95-239 234V0H128" id="ae"/><path d="M428-647V0H128v-1118h283l4 231c63-156 176-245 348-245 232 0 384 159 384 421V0H847v-659c0-139-76-222-202-222-128 0-217 86-217 234" id="af"/><path d="M628 22C291 22 81-210 81-554c0-346 210-578 547-578 265 0 455 142 497 372l-279 52c-25-116-99-188-215-188-160 0-244 139-244 341 0 200 84 341 244 341 116 0 193-74 217-195l279 51C1085-123 896 22 628 22" id="ag"/><g id="d"><use transform="matrix(0.01953125,0,0,0.01953125,0,0)" xlink:href="#ab"/><use transform="matrix(0.01953125,0,0,0.01953125,25.78125,0)" xlink:href="#ac"/><use transform="matrix(0.01953125,0,0,0.01953125,49.609375,0)" xlink:href="#ad"/><use transform="matrix(0.01953125,0,0,0.01953125,64.66796875,0)" xlink:href="#ac"/><use transform="matrix(0.01953125,0,0,0.01953125,88.49609375,0)" xlink:href="#ae"/><use transform="matrix(0.01953125,0,0,0.01953125,103.80859375,0)" xlink:href="#ac"/><use transform="matrix(0.01953125,0,0,0.01953125,127.63671875,0)" xlink:href="#af"/><use transform="matrix(0.01953125,0,0,0.01953125,152.5390625,0)" xlink:href="#ag"/><use transform="matrix(0.01953125,0,0,0.01953125,176.07421875,0)" xlink:href="#ac"/></g><path d="M653-1490V0H466v-1314h-10L96-1047v-204l324-239h233" id="ah"/><g id="e"><use transform="matrix(0.010850694444444444,0,0,0.010850694444444444,0,0)" xlink:href="#ah"/><use transform="matrix(0.010850694444444444,0,0,0.010850694444444444,9.038628472222221,0)" xlink:href="#V"/><use transform="matrix(0.010850694444444444,0,0,0.010850694444444444,22.591145833333332,0)" xlink:href="#X"/></g><path d="M646 20c-332 0-524-278-524-764 0-483 194-766 524-766s524 283 524 766c0 485-191 764-524 764zm0-166c218 0 341-220 341-598 0-380-123-601-341-601s-341 222-341 601c0 378 123 598 341 598" id="ai"/><g id="f"><use transform="matrix(0.010850694444444444,0,0,0.010850694444444444,0,0)" xlink:href="#ah"/><use transform="matrix(0.010850694444444444,0,0,0.010850694444444444,9.038628472222221,0)" xlink:href="#ai"/></g><path d="M158 0v-1490h180v865h22l478-493h223L593-638 1096 0H865L456-523 338-412V0H158" id="aj"/><path d="M126 0v-167h363v-74c-239-68-367-291-367-573 0-409 275-696 666-696s667 287 667 696c0 283-130 505-367 573v74h363V0H915v-300c220-59 349-241 349-512 0-325-189-521-475-521-288 0-476 196-476 521 0 270 128 452 349 512V0H126" id="ak"/><g id="g"><use transform="matrix(0.010850694444444444,0,0,0.010850694444444444,0,0)" xlink:href="#aj"/><use transform="matrix(0.010850694444444444,0,0,0.010850694444444444,12.196180555555555,0)" xlink:href="#ak"/></g><path d="M158 0v-1118h180V0H158zm91-1301c-68 0-125-53-125-119s57-119 125-119c69 0 126 53 126 119s-57 119-126 119" id="al"/><path d="M338-670V0H158v-1118h173l1 207c72-158 192-221 342-221 226 0 378 139 378 422V0H872v-695c0-172-96-275-252-275-161 0-282 109-282 300" id="am"/><g id="h"><use transform="matrix(0.010850694444444444,0,0,0.010850694444444444,0,0)" xlink:href="#X"/><use transform="matrix(0.010850694444444444,0,0,0.010850694444444444,15.33203125,0)" xlink:href="#al"/><use transform="matrix(0.010850694444444444,0,0,0.010850694444444444,20.713975694444443,0)" xlink:href="#am"/></g><path d="M180 0v-1490h510c348 0 508 194 508 460 0 198-88 351-276 417L1256 0h-220L726-579c-117 2-238 0-356 1V0H180zm190-747h312c235 0 327-108 327-283 0-177-92-293-329-293H370v576" id="an"/><use transform="matrix(0.010850694444444444,0,0,0.010850694444444444,0,0)" xlink:href="#an" id="i"/><g id="j"><use transform="matrix(0.010850694444444444,0,0,0.010850694444444444,0,0)" xlink:href="#ah"/><use transform="matrix(0.010850694444444444,0,0,0.010850694444444444,9.038628472222221,0)" xlink:href="#ai"/></g><path d="M783 20c-382 0-661-292-661-764 0-473 279-766 661-766 302 0 548 182 601 489h-190c-42-204-217-313-411-313-268 0-476 208-476 590 0 381 209 588 476 588 195 0 369-110 411-313h190c-52 303-296 489-601 489" id="ao"/><use transform="matrix(0.010850694444444444,0,0,0.010850694444444444,0,0)" xlink:href="#ao" id="k"/><g id="l"><use transform="matrix(0.010850694444444444,0,0,0.010850694444444444,0,0)" xlink:href="#ah"/><use transform="matrix(0.010850694444444444,0,0,0.010850694444444444,9.038628472222221,0)" xlink:href="#ai"/><use transform="matrix(0.010850694444444444,0,0,0.010850694444444444,23.057725694444443,0)" xlink:href="#ai"/><use transform="matrix(0.010850694444444444,0,0,0.010850694444444444,37.076822916666664,0)" xlink:href="#am"/></g><use transform="matrix(0.010850694444444444,0,0,0.010850694444444444,0,0)" xlink:href="#ah" id="m"/><path d="M613 24c-304 0-509-231-509-576 0-350 205-580 509-580 305 0 511 230 511 580 0 345-206 576-511 576zm0-161c226 0 329-195 329-415 0-222-103-419-329-419-223 0-326 196-326 419 0 220 103 415 326 415" id="ap"/><path d="M537 14c-226 0-379-139-379-422v-710h180v695c0 172 97 275 253 275 160 0 281-109 281-300v-670h181V0H879v-209C806-46 684 14 537 14" id="aq"/><path d="M598-1118v154H368v674c0 100 37 144 132 144 23 0 62-6 92-12L629-6c-37 13-88 20-134 20-193 0-307-107-307-290v-688H20v-154h168v-266h180v266h230" id="ar"/><g id="n"><use transform="matrix(0.010850694444444444,0,0,0.010850694444444444,0,0)" xlink:href="#X"/><use transform="matrix(0.010850694444444444,0,0,0.010850694444444444,14.20355902777778,0)" xlink:href="#ap"/><use transform="matrix(0.010850694444444444,0,0,0.010850694444444444,27.52821180555556,0)" xlink:href="#aq"/><use transform="matrix(0.010850694444444444,0,0,0.010850694444444444,40.66840277777778,0)" xlink:href="#ar"/></g><path d="M180 0v-1490h901v168H370v510h643v168H370V0H180" id="as"/><path d="M370-1490V0H180v-1490h190" id="at"/><path d="M180 0v-1490h190v1322h690V0H180" id="au"/><path d="M180 0v-1490h224l606 953c40 63 108 177 176 312-27-437-7-821-13-1265h190V0h-226C860-448 622-778 356-1262c27 476 11 792 15 1262H180" id="av"/><g id="o"><use transform="matrix(0.010850694444444444,0,0,0.010850694444444444,0,0)" xlink:href="#as"/><use transform="matrix(0.010850694444444444,0,0,0.010850694444444444,13.118489583333332,0)" xlink:href="#at"/><use transform="matrix(0.010850694444444444,0,0,0.010850694444444444,19.08637152777778,0)" xlink:href="#au"/><use transform="matrix(0.010850694444444444,0,0,0.010850694444444444,31.651475694444443,0)" xlink:href="#av"/></g><path d="M180 0v-1490h908v168H370v486h669v168H370v500h727V0H180" id="aw"/><path d="M645 0H180v-1490h484c435 0 692 280 692 742 0 466-257 748-711 748zM370-168h263c363 0 539-218 539-580 0-358-176-574-521-574H370v1154" id="ax"/><g id="p"><use transform="matrix(0.010850694444444444,0,0,0.010850694444444444,0,0)" xlink:href="#au"/><use transform="matrix(0.010850694444444444,0,0,0.010850694444444444,12.565104166666666,0)" xlink:href="#aw"/><use transform="matrix(0.010850694444444444,0,0,0.010850694444444444,25.92230902777778,0)" xlink:href="#ax"/></g><g id="q"><use transform="matrix(0.010850694444444444,0,0,0.010850694444444444,0,0)" xlink:href="#ah"/><use transform="matrix(0.010850694444444444,0,0,0.010850694444444444,9.038628472222221,0)" xlink:href="#V"/><use transform="matrix(0.010850694444444444,0,0,0.010850694444444444,22.591145833333332,0)" xlink:href="#X"/></g><path d="M180 0v-1490h270l367 940c28 72 75 218 110 339 35-117 81-264 110-339l362-940h271V0h-187c2-448-5-837 7-1287-157 497-311 829-483 1287H842C666-458 514-784 354-1284c12 438 5 843 7 1284H180" id="ay"/><path d="M635 20c-292 0-500-160-510-396h192c11 142 145 229 315 229 187 0 323-105 323-260 0-161-125-274-346-274H488v-165h121c174 0 294-100 294-254 0-148-104-245-266-245-152 0-291 85-297 230H157c8-234 222-395 484-395 278 0 448 188 448 400 0 168-95 291-247 336v12c190 31 301 169 301 357 0 244-216 425-508 425" id="az"/><path d="M603 20c-253 0-434-161-469-399h188c31 132 124 231 281 231 227 0 367-207 367-568h-12c-80 122-211 199-367 199-257 0-469-206-469-493 0-278 200-505 506-500 245 4 520 158 520 706 0 527-208 824-545 824zm16-703c181 0 324-157 324-332 0-171-135-328-318-328-180 0-317 148-317 332 0 183 131 328 311 328" id="aA"/><g id="r"><use transform="matrix(0.010850694444444444,0,0,0.010850694444444444,0,0)" xlink:href="#au"/><use transform="matrix(0.010850694444444444,0,0,0.010850694444444444,12.565104166666666,0)" xlink:href="#ay"/><use transform="matrix(0.010850694444444444,0,0,0.010850694444444444,32.638888888888886,0)" xlink:href="#az"/><use transform="matrix(0.010850694444444444,0,0,0.010850694444444444,46.36501736111111,0)" xlink:href="#aA"/><use transform="matrix(0.010850694444444444,0,0,0.010850694444444444,60.14539930555555,0)" xlink:href="#az"/></g><path d="M626 20c-262 0-458-168-468-396h184c12 133 134 229 284 229 180 0 311-137 311-326 0-192-136-335-323-335-92 0-196 33-255 78l-178-22 88-738h784v167H429l-51 435h8c61-51 160-87 263-87 273 0 474 211 474 499 0 286-210 496-497 496" id="aB"/><g id="s"><use transform="matrix(0.010850694444444444,0,0,0.010850694444444444,0,0)" xlink:href="#aB"/><use transform="matrix(0.010850694444444444,0,0,0.010850694444444444,13.509114583333332,0)" xlink:href="#ai"/></g><path d="M481 0L54-1118h197c107 314 236 620 325 951 87-331 217-637 324-951h197L670 0H481" id="aC"/><g id="t"><use transform="matrix(0.010850694444444444,0,0,0.010850694444444444,0,0)" xlink:href="#V"/><use transform="matrix(0.010850694444444444,0,0,0.010850694444444444,13.20529513888889,0)" xlink:href="#W"/><use transform="matrix(0.010850694444444444,0,0,0.010850694444444444,27.56076388888889,0)" xlink:href="#aC"/></g><g id="u"><use transform="matrix(0.010850694444444444,0,0,0.010850694444444444,0,0)" xlink:href="#aB"/><use transform="matrix(0.010850694444444444,0,0,0.010850694444444444,13.509114583333332,0)" xlink:href="#V"/></g><use transform="matrix(0.010850694444444444,0,0,0.010850694444444444,0,0)" xlink:href="#ah" id="v"/><g id="w"><use transform="matrix(0.010850694444444444,0,0,0.010850694444444444,0,0)" xlink:href="#ay"/><use transform="matrix(0.010850694444444444,0,0,0.010850694444444444,20.07378472222222,0)" xlink:href="#ak"/></g><path d="M158 0v-1118h174v172h12c41-113 157-188 290-188 26 0 70 2 91 3v181c-11-2-60-10-108-10-161 0-279 109-279 260V0H158" id="aD"/><path d="M628 24c-324 0-524-230-524-574 0-343 198-582 503-582 237 0 487 146 487 559v75H286c9 234 145 362 343 362 132 0 231-58 273-172l174 48C1024-91 857 24 628 24zM287-650h624c-17-190-120-322-304-322-192 0-309 151-320 322" id="aE"/><path d="M678-1118v154H420V0H240v-964H20v-154h220v-149c0-194 155-293 318-293 85 0 141 18 168 30l-50 154c-19-6-47-17-97-17-111 0-159 58-159 166v109h258" id="aF"/><path d="M593-100v-404H195v-159h398v-403h169v403h398v159H762v404H593" id="aG"/><g id="x"><use transform="matrix(0.010850694444444444,0,0,0.010850694444444444,0,0)" xlink:href="#X"/><use transform="matrix(0.010850694444444444,0,0,0.010850694444444444,15.33203125,0)" xlink:href="#aD"/><use transform="matrix(0.010850694444444444,0,0,0.010850694444444444,23.328993055555554,0)" xlink:href="#aE"/><use transform="matrix(0.010850694444444444,0,0,0.010850694444444444,36.28472222222222,0)" xlink:href="#aF"/><use transform="matrix(0.010850694444444444,0,0,0.010850694444444444,43.88020833333333,0)" xlink:href="#aG"/></g><path d="M798-719v166H144v-166h654" id="aH"/><g id="y"><use transform="matrix(0.010850694444444444,0,0,0.010850694444444444,0,0)" xlink:href="#X"/><use transform="matrix(0.010850694444444444,0,0,0.010850694444444444,15.33203125,0)" xlink:href="#aD"/><use transform="matrix(0.010850694444444444,0,0,0.010850694444444444,23.328993055555554,0)" xlink:href="#aE"/><use transform="matrix(0.010850694444444444,0,0,0.010850694444444444,36.28472222222222,0)" xlink:href="#aF"/><use transform="matrix(0.010850694444444444,0,0,0.010850694444444444,43.88020833333333,0)" xlink:href="#aH"/></g><g id="z"><use transform="matrix(0.010850694444444444,0,0,0.010850694444444444,0,0)" xlink:href="#az"/><use transform="matrix(0.010850694444444444,0,0,0.010850694444444444,13.726128472222221,0)" xlink:href="#az"/><use transform="matrix(0.010850694444444444,0,0,0.010850694444444444,27.452256944444443,0)" xlink:href="#ai"/></g><path d="M681 22C323 22 94-145 85-462h297c10 151 131 226 296 226 163 0 271-77 271-190 0-102-95-149-257-189l-164-41c-252-61-403-188-403-405 0-269 236-449 560-449 330 0 546 183 551 445H941c-11-119-106-188-259-188-156 0-244 72-244 172-3 156 226 185 373 221 250 61 445 186 445 436 0 271-213 446-575 446" id="aI"/><path d="M440 22C227 22 68-92 68-313c0-250 202-322 422-343 195-21 271-24 271-105 0-95-63-149-175-149-116 0-187 57-211 129l-275-46c57-194 237-305 487-305 240 0 474 108 474 379V0H777v-155h-10C713-51 605 22 440 22zm85-211c140 0 238-93 238-211v-121c-37 26-156 42-222 51-111 16-185 59-185 149 0 87 70 132 169 132" id="aJ"/><path d="M683-1118v229H474v562c0 71 29 104 102 104 23 0 73-7 95-13l43 225C647 9 580 16 520 16 296 16 174-96 174-301v-588H20v-229h154v-266h300v266h209" id="aK"/><path d="M513 14c-232 0-385-159-385-421v-711h300v659c0 139 76 222 202 222 127 0 217-86 217-234v-647h301V0H864l-4-232C797-74 683 14 513 14" id="aL"/><path d="M128 0v-1118h300V0H128zm150-1264c-91 0-165-68-165-154 0-85 74-154 165-154 90 0 165 69 165 154 0 86-75 154-165 154" id="aM"/><path d="M628 22C291 22 81-210 81-554c0-346 210-578 547-578 336 0 547 232 547 578 0 344-211 576-547 576zm0-236c160 0 242-146 242-341 0-197-82-341-242-341S387-753 387-555c0 195 81 341 241 341" id="aN"/><g id="A"><use transform="matrix(0.01953125,0,0,0.01953125,0,0)" xlink:href="#aI"/><use transform="matrix(0.01953125,0,0,0.01953125,26.19140625,0)" xlink:href="#aJ"/><use transform="matrix(0.01953125,0,0,0.01953125,49.4140625,0)" xlink:href="#aK"/><use transform="matrix(0.01953125,0,0,0.01953125,64.0625,0)" xlink:href="#aL"/><use transform="matrix(0.01953125,0,0,0.01953125,88.96484375,0)" xlink:href="#ae"/><use transform="matrix(0.01953125,0,0,0.01953125,104.70703125,0)" xlink:href="#aJ"/><use transform="matrix(0.01953125,0,0,0.01953125,127.9296875,0)" xlink:href="#aK"/><use transform="matrix(0.01953125,0,0,0.01953125,142.578125,0)" xlink:href="#aM"/><use transform="matrix(0.01953125,0,0,0.01953125,153.41796875,0)" xlink:href="#aN"/><use transform="matrix(0.01953125,0,0,0.01953125,177.94921875,0)" xlink:href="#af"/></g><path d="M572 22C302 22 117-98 78-306l279-48c29 105 101 156 224 156 114 0 185-48 185-115 0-118-228-130-337-155-215-49-322-150-322-317 0-215 187-347 470-347 265 0 424 116 466 298l-266 47c-24-76-87-130-196-130-98 0-174 46-174 113 0 56 38 95 144 117l201 40c216 44 320 143 320 302 0 220-207 367-500 367" id="aO"/><path d="M625 442c-280 0-454-114-503-274l258-72c28 63 97 128 243 128 153 0 246-69 246-216v-206h-23C805-108 717-16 536-16 284-16 81-191 81-561c0-378 208-571 456-571 188 0 280 113 321 202h13v-188h295V-9c0 303-226 451-541 451zm5-686c153 0 240-119 240-319 0-198-86-329-240-329-158 0-241 137-241 329 0 195 85 319 241 319" id="aP"/><g id="B"><use transform="matrix(0.01953125,0,0,0.01953125,0,0)" xlink:href="#aI"/><use transform="matrix(0.01953125,0,0,0.01953125,26.19140625,0)" xlink:href="#ac"/><use transform="matrix(0.01953125,0,0,0.01953125,50.01953125,0)" xlink:href="#af"/><use transform="matrix(0.01953125,0,0,0.01953125,74.921875,0)" xlink:href="#aO"/><use transform="matrix(0.01953125,0,0,0.01953125,97.32421875,0)" xlink:href="#aM"/><use transform="matrix(0.01953125,0,0,0.01953125,108.1640625,0)" xlink:href="#af"/><use transform="matrix(0.01953125,0,0,0.01953125,133.06640625,0)" xlink:href="#aP"/></g><path d="M440-1490V0H135v-1490h305" id="aQ"/><g id="C"><use transform="matrix(0.01953125,0,0,0.01953125,0,0)" xlink:href="#aQ"/><use transform="matrix(0.01953125,0,0,0.01953125,11.23046875,0)" xlink:href="#af"/><use transform="matrix(0.01953125,0,0,0.01953125,36.1328125,0)" xlink:href="#aK"/><use transform="matrix(0.01953125,0,0,0.01953125,50.390625,0)" xlink:href="#ac"/><use transform="matrix(0.01953125,0,0,0.01953125,74.21875,0)" xlink:href="#aP"/><use transform="matrix(0.01953125,0,0,0.01953125,99.4921875,0)" xlink:href="#ae"/><use transform="matrix(0.01953125,0,0,0.01953125,115.234375,0)" xlink:href="#aJ"/><use transform="matrix(0.01953125,0,0,0.01953125,138.45703125,0)" xlink:href="#aK"/><use transform="matrix(0.01953125,0,0,0.01953125,152.71484375,0)" xlink:href="#aN"/><use transform="matrix(0.01953125,0,0,0.01953125,177.24609375,0)" xlink:href="#ae"/></g><path d="M786 20C389 20 94-260 94-744c0-487 299-766 692-766 339 0 597 194 641 529h-309c-28-162-156-258-326-258-233 0-388 179-388 495 0 323 157 493 387 493 170 0 298-97 328-259h309c-34 277-266 530-642 530" id="aR"/><g id="D"><use transform="matrix(0.01953125,0,0,0.01953125,0,0)" xlink:href="#aR"/><use transform="matrix(0.01953125,0,0,0.01953125,29.58984375,0)" xlink:href="#aM"/><use transform="matrix(0.01953125,0,0,0.01953125,40.4296875,0)" xlink:href="#ae"/><use transform="matrix(0.01953125,0,0,0.01953125,55.7421875,0)" xlink:href="#ag"/><use transform="matrix(0.01953125,0,0,0.01953125,79.27734375,0)" xlink:href="#aL"/><use transform="matrix(0.01953125,0,0,0.01953125,104.1796875,0)" xlink:href="#aM"/><use transform="matrix(0.01953125,0,0,0.01953125,115.01953125,0)" xlink:href="#aK"/></g><path d="M135 0v-1490h340l471 754c59 97 122 210 187 365-32-387-14-721-19-1119h312V0h-341C855-382 627-689 427-1113c32 420 16 695 20 1113H135" id="aS"/><path d="M342-723c-98 0-173-75-173-172s75-172 173-172 173 75 173 172-75 172-173 172zm0 742c-98 0-173-75-173-172s75-172 173-172 173 75 173 172S440 19 342 19" id="aT"/><g id="E"><use transform="matrix(0.01953125,0,0,0.01953125,0,0)" xlink:href="#aS"/><use transform="matrix(0.01953125,0,0,0.01953125,30.48828125,0)" xlink:href="#aN"/><use transform="matrix(0.01953125,0,0,0.01953125,55.01953125,0)" xlink:href="#aK"/><use transform="matrix(0.01953125,0,0,0.01953125,69.27734375,0)" xlink:href="#ac"/><use transform="matrix(0.01953125,0,0,0.01953125,93.10546875,0)" xlink:href="#aO"/><use transform="matrix(0.01953125,0,0,0.01953125,115.5078125,0)" xlink:href="#aT"/><path d="M-2 8.16h132.87v3.7H-2z"/></g><path d="M576-274c-177 0-320-143-320-320s143-320 320-320 320 143 320 320-143 320-320 320" id="aU"/><use transform="matrix(0.013020833333333334,0,0,0.013020833333333334,0,0)" xlink:href="#aU" id="F"/><path d="M657 26c-323 0-524-166-541-416h195c15 169 171 246 346 246 202 0 356-106 356-265 5-203-294-238-475-293-239-73-380-191-380-389 0-252 224-419 512-419 294 0 499 171 508 396H992c-17-145-151-228-328-228-193 0-321 102-321 242 0 156 175 211 284 241l149 41c160 44 422 134 422 412 0 244-197 432-541 432" id="aV"/><path d="M409 0L70-1118h191c89 329 165 560 243 925 75-353 154-601 240-925h192c85 325 161 564 235 922 77-354 157-598 244-922h191L1267 0h-179c-86-307-176-590-250-913C763-588 675-308 588 0H409" id="aW"/><path d="M613 24c-304 0-509-231-509-576 0-350 205-580 509-580 216 0 392 114 453 309l-173 49c-33-115-133-197-280-197-223 0-326 196-326 419 0 220 103 415 326 415 150 0 252-85 285-206l172 49C1010-95 832 24 613 24" id="aX"/><path d="M338-670V0H158v-1490h180v566c73-149 190-208 336-208 226 0 379 139 379 422V0H872v-695c0-172-96-275-252-275-161 0-282 109-282 300" id="aY"/><g id="G"><use transform="matrix(0.013020833333333334,0,0,0.013020833333333334,0,0)" xlink:href="#aV"/><use transform="matrix(0.013020833333333334,0,0,0.013020833333333334,17.109375,0)" xlink:href="#aW"/><use transform="matrix(0.013020833333333334,0,0,0.013020833333333334,38.93229166666667,0)" xlink:href="#al"/><use transform="matrix(0.013020833333333334,0,0,0.013020833333333334,45.39062500000001,0)" xlink:href="#ar"/><use transform="matrix(0.013020833333333334,0,0,0.013020833333333334,53.85416666666668,0)" xlink:href="#aX"/><use transform="matrix(0.013020833333333334,0,0,0.013020833333333334,69.08854166666669,0)" xlink:href="#aY"/></g><path d="M538 24C308 24 148-78 108-271l171-41c32 123 123 178 257 178 156 0 256-77 256-169 0-77-54-128-164-154l-186-44c-203-48-300-148-300-305 0-192 176-326 414-326 230 0 351 112 402 269l-163 42c-31-80-94-158-238-158-133 0-233 69-233 162 0 83 57 129 188 160l169 40c203 48 298 149 298 302 0 196-179 339-441 339" id="aZ"/><g id="H"><use transform="matrix(0.013020833333333334,0,0,0.013020833333333334,0,0)" xlink:href="#al"/><use transform="matrix(0.013020833333333334,0,0,0.013020833333333334,6.458333333333334,0)" xlink:href="#aZ"/></g><path d="M471 26C259 26 90-98 90-318c0-256 228-303 435-329 202-27 287-16 287-108 0-139-79-219-234-219-161 0-248 86-283 164l-173-57c86-203 278-265 451-265 150 0 419 46 419 395V0H815v-152h-12C765-73 660 26 471 26zm31-159c199 0 310-134 310-271v-155c-30 35-226 55-295 64-131 17-246 59-246 186 0 116 97 176 231 176" id="ba"/><path d="M338-1490V0H158v-1490h180" id="bb"/><path d="M140 405l46-156c120 36 205 19 263-150l32-93L54-1118h197c107 313 237 620 324 950 87-331 219-637 326-950h196L606 167c-68 178-176 259-334 259-64 0-113-12-132-21" id="bc"/><g id="I"><use transform="matrix(0.013020833333333334,0,0,0.013020833333333334,0,0)" xlink:href="#ba"/><use transform="matrix(0.013020833333333334,0,0,0.013020833333333334,14.973958333333334,0)" xlink:href="#aX"/><use transform="matrix(0.013020833333333334,0,0,0.013020833333333334,30.208333333333336,0)" xlink:href="#ar"/><use transform="matrix(0.013020833333333334,0,0,0.013020833333333334,38.93229166666667,0)" xlink:href="#aq"/><use transform="matrix(0.013020833333333334,0,0,0.013020833333333334,54.70052083333335,0)" xlink:href="#ba"/><use transform="matrix(0.013020833333333334,0,0,0.013020833333333334,69.67447916666667,0)" xlink:href="#bb"/><use transform="matrix(0.013020833333333334,0,0,0.013020833333333334,76.1328125,0)" xlink:href="#bb"/><use transform="matrix(0.013020833333333334,0,0,0.013020833333333334,82.72135416666666,0)" xlink:href="#bc"/></g><use transform="matrix(0.013020833333333334,0,0,0.013020833333333334,0,0)" xlink:href="#ba" id="J"/><path d="M677 24c-213 0-288-135-325-197h-20V0H158v-1490h180v551h14c37-59 106-193 324-193 279 0 474 222 474 576 0 356-194 580-473 580zm-27-161c209 0 317-186 317-421 0-232-105-413-317-413-206 0-314 166-314 413 0 249 111 421 314 421" id="bd"/><g id="K"><use transform="matrix(0.013020833333333334,0,0,0.013020833333333334,0,0)" xlink:href="#bd"/><use transform="matrix(0.013020833333333334,0,0,0.013020833333333334,16.328125,0)" xlink:href="#aq"/><use transform="matrix(0.013020833333333334,0,0,0.013020833333333334,32.09635416666667,0)" xlink:href="#ar"/><use transform="matrix(0.013020833333333334,0,0,0.013020833333333334,40.169270833333336,0)" xlink:href="#ar"/><use transform="matrix(0.013020833333333334,0,0,0.013020833333333334,48.63281250000001,0)" xlink:href="#ap"/><use transform="matrix(0.013020833333333334,0,0,0.013020833333333334,64.62239583333334,0)" xlink:href="#am"/></g><g id="L"><use transform="matrix(0.013020833333333334,0,0,0.013020833333333334,0,0)" xlink:href="#ar"/><use transform="matrix(0.013020833333333334,0,0,0.013020833333333334,8.463541666666668,0)" xlink:href="#ap"/></g><path d="M158 418v-1536h174v179h20c37-59 106-193 324-193 279 0 474 222 474 576 0 356-194 580-473 580-213 0-288-135-325-197h-14v591H158zm492-555c209 0 317-186 317-421 0-232-105-413-317-413-206 0-314 166-314 413 0 249 111 421 314 421" id="be"/><g id="M"><use transform="matrix(0.013020833333333334,0,0,0.013020833333333334,0,0)" xlink:href="#be"/><use transform="matrix(0.013020833333333334,0,0,0.013020833333333334,16.328125,0)" xlink:href="#aD"/><use transform="matrix(0.013020833333333334,0,0,0.013020833333333334,25.924479166666664,0)" xlink:href="#aE"/><use transform="matrix(0.013020833333333334,0,0,0.013020833333333334,40.95052083333333,0)" xlink:href="#aC"/><use transform="matrix(0.013020833333333334,0,0,0.013020833333333334,55.41666666666666,0)" xlink:href="#aE"/><use transform="matrix(0.013020833333333334,0,0,0.013020833333333334,70.96354166666666,0)" xlink:href="#am"/><use transform="matrix(0.013020833333333334,0,0,0.013020833333333334,86.71874999999999,0)" xlink:href="#ar"/></g><g id="N"><use transform="matrix(0.013020833333333334,0,0,0.013020833333333334,0,0)" xlink:href="#aD"/><use transform="matrix(0.013020833333333334,0,0,0.013020833333333334,10.0390625,0)" xlink:href="#aq"/><use transform="matrix(0.013020833333333334,0,0,0.013020833333333334,25.807291666666668,0)" xlink:href="#am"/><use transform="matrix(0.013020833333333334,0,0,0.013020833333333334,41.5625,0)" xlink:href="#ba"/><use transform="matrix(0.013020833333333334,0,0,0.013020833333333334,56.536458333333336,0)" xlink:href="#aW"/><use transform="matrix(0.013020833333333334,0,0,0.013020833333333334,78.359375,0)" xlink:href="#ba"/><use transform="matrix(0.013020833333333334,0,0,0.013020833333333334,92.94270833333333,0)" xlink:href="#bc"/></g><path d="M611 442c-248 0-391-105-460-228l146-94c47 65 117 165 314 165 178 0 307-82 307-266v-224h-17C863-141 792-18 576-18c-268 0-472-195-472-546 0-346 197-568 476-568 216 0 288 133 326 193h17v-179h175V29c0 289-215 413-487 413zm-5-620c203 0 314-146 314-390 0-237-108-403-314-403-213 0-319 180-319 403 0 230 109 390 319 390" id="bf"/><g id="O"><use transform="matrix(0.013020833333333334,0,0,0.013020833333333334,0,0)" xlink:href="#aC"/><use transform="matrix(0.013020833333333334,0,0,0.013020833333333334,14.466145833333334,0)" xlink:href="#ap"/><use transform="matrix(0.013020833333333334,0,0,0.013020833333333334,30.455729166666668,0)" xlink:href="#bb"/><use transform="matrix(0.013020833333333334,0,0,0.013020833333333334,37.3046875,0)" xlink:href="#ar"/><use transform="matrix(0.013020833333333334,0,0,0.013020833333333334,46.15885416666667,0)" xlink:href="#ba"/><use transform="matrix(0.013020833333333334,0,0,0.013020833333333334,61.1328125,0)" xlink:href="#bf"/><use transform="matrix(0.013020833333333334,0,0,0.013020833333333334,77.48697916666667,0)" xlink:href="#aE"/><use transform="matrix(0.013020833333333334,0,0,0.013020833333333334,93.03385416666667,0)" xlink:href="#aZ"/></g><path d="M218-607c0-325 108-727 258-974h175c-155 315-250 682-250 974 0 265 78 531 250 886H476C306-10 218-315 218-607" id="bg"/><g id="P"><use transform="matrix(0.013020833333333334,0,0,0.013020833333333334,0,0)" xlink:href="#bg"/><use transform="matrix(0.013020833333333334,0,0,0.013020833333333334,9.427083333333334,0)" xlink:href="#aX"/><use transform="matrix(0.013020833333333334,0,0,0.013020833333333334,24.661458333333336,0)" xlink:href="#ap"/><use transform="matrix(0.013020833333333334,0,0,0.013020833333333334,40.65104166666667,0)" xlink:href="#am"/><use transform="matrix(0.013020833333333334,0,0,0.013020833333333334,56.40625,0)" xlink:href="#ar"/><use transform="matrix(0.013020833333333334,0,0,0.013020833333333334,65.13020833333334,0)" xlink:href="#al"/><use transform="matrix(0.013020833333333334,0,0,0.013020833333333334,71.58854166666667,0)" xlink:href="#am"/><use transform="matrix(0.013020833333333334,0,0,0.013020833333333334,87.34375,0)" xlink:href="#aq"/><use transform="matrix(0.013020833333333334,0,0,0.013020833333333334,103.11197916666667,0)" xlink:href="#ba"/><use transform="matrix(0.013020833333333334,0,0,0.013020833333333334,118.0859375,0)" xlink:href="#bb"/><use transform="matrix(0.013020833333333334,0,0,0.013020833333333334,124.54427083333334,0)" xlink:href="#bb"/><use transform="matrix(0.013020833333333334,0,0,0.013020833333333334,131.1328125,0)" xlink:href="#bc"/></g><g id="Q"><use transform="matrix(0.013020833333333334,0,0,0.013020833333333334,0,0)" xlink:href="#al"/><use transform="matrix(0.013020833333333334,0,0,0.013020833333333334,6.458333333333334,0)" xlink:href="#am"/><use transform="matrix(0.013020833333333334,0,0,0.013020833333333334,22.213541666666668,0)" xlink:href="#ar"/><use transform="matrix(0.013020833333333334,0,0,0.013020833333333334,30.677083333333336,0)" xlink:href="#aE"/><use transform="matrix(0.013020833333333334,0,0,0.013020833333333334,46.223958333333336,0)" xlink:href="#bf"/><use transform="matrix(0.013020833333333334,0,0,0.013020833333333334,62.578125,0)" xlink:href="#aD"/><use transform="matrix(0.013020833333333334,0,0,0.013020833333333334,72.6171875,0)" xlink:href="#ba"/><use transform="matrix(0.013020833333333334,0,0,0.013020833333333334,87.59114583333333,0)" xlink:href="#ar"/><use transform="matrix(0.013020833333333334,0,0,0.013020833333333334,96.31510416666666,0)" xlink:href="#al"/><use transform="matrix(0.013020833333333334,0,0,0.013020833333333334,102.77343749999999,0)" xlink:href="#am"/><use transform="matrix(0.013020833333333334,0,0,0.013020833333333334,118.52864583333331,0)" xlink:href="#bf"/></g><g id="R"><use transform="matrix(0.013020833333333334,0,0,0.013020833333333334,0,0)" xlink:href="#ap"/><use transform="matrix(0.013020833333333334,0,0,0.013020833333333334,15.989583333333334,0)" xlink:href="#am"/></g><path d="M158 0v-1118h175l1 205c55-151 181-225 313-225 147 0 245 90 285 228 53-141 190-228 352-228 194 0 352 125 352 384V0h-181v-749c0-161-105-225-225-225-151 0-243 103-243 244V0H807v-767c0-124-93-207-219-207-131 0-250 92-250 270V0H158" id="bh"/><g id="S"><use transform="matrix(0.013020833333333334,0,0,0.013020833333333334,0,0)" xlink:href="#aZ"/><use transform="matrix(0.013020833333333334,0,0,0.013020833333333334,14.075520833333334,0)" xlink:href="#bh"/><use transform="matrix(0.013020833333333334,0,0,0.013020833333333334,37.434895833333336,0)" xlink:href="#ba"/><use transform="matrix(0.013020833333333334,0,0,0.013020833333333334,52.40885416666667,0)" xlink:href="#bb"/><use transform="matrix(0.013020833333333334,0,0,0.013020833333333334,58.8671875,0)" xlink:href="#bb"/></g><path d="M96 279C273-86 346-350 346-607c0-292-95-659-250-974h175c150 246 258 650 258 974 0 297-91 602-258 886H96" id="bi"/><path d="M295 13c-75 0-135-60-135-135s60-135 135-135 135 60 135 135S370 13 295 13" id="bj"/><g id="T"><use transform="matrix(0.013020833333333334,0,0,0.013020833333333334,0,0)" xlink:href="#aC"/><use transform="matrix(0.013020833333333334,0,0,0.013020833333333334,14.466145833333334,0)" xlink:href="#ap"/><use transform="matrix(0.013020833333333334,0,0,0.013020833333333334,30.455729166666668,0)" xlink:href="#bb"/><use transform="matrix(0.013020833333333334,0,0,0.013020833333333334,37.3046875,0)" xlink:href="#ar"/><use transform="matrix(0.013020833333333334,0,0,0.013020833333333334,46.15885416666667,0)" xlink:href="#ba"/><use transform="matrix(0.013020833333333334,0,0,0.013020833333333334,61.1328125,0)" xlink:href="#bf"/><use transform="matrix(0.013020833333333334,0,0,0.013020833333333334,77.48697916666667,0)" xlink:href="#aE"/><use transform="matrix(0.013020833333333334,0,0,0.013020833333333334,92.734375,0)" xlink:href="#bi"/><use transform="matrix(0.013020833333333334,0,0,0.013020833333333334,102.4609375,0)" xlink:href="#bj"/></g></defs></g></svg>